<?xml version="1.0" encoding="UTF-8" standalone="no"?>
<!-- Created with Inkscape (http://www.inkscape.org/) -->

<svg
   width="44.293289mm"
   height="37.464294mm"
   viewBox="0 0 44.293289 37.464295"
   version="1.1"
   id="svg24511"
   inkscape:version="1.1.2 (0a00cf5339, 2022-02-04)"
   sodipodi:docname="horizon.svg"
   xmlns:inkscape="http://www.inkscape.org/namespaces/inkscape"
   xmlns:sodipodi="http://sodipodi.sourceforge.net/DTD/sodipodi-0.dtd"
   xmlns:xlink="http://www.w3.org/1999/xlink"
   xmlns="http://www.w3.org/2000/svg"
   xmlns:svg="http://www.w3.org/2000/svg">
  <sodipodi:namedview
     id="namedview24513"
     pagecolor="#ffffff"
     bordercolor="#666666"
     borderopacity="1.0"
     inkscape:pageshadow="2"
     inkscape:pageopacity="0.0"
     inkscape:pagecheckerboard="0"
     inkscape:document-units="mm"
     showgrid="false"
     inkscape:zoom="2.8284272"
     inkscape:cx="120.20815"
     inkscape:cy="83.615376"
     inkscape:window-width="1920"
     inkscape:window-height="954"
     inkscape:window-x="0"
     inkscape:window-y="0"
     inkscape:window-maximized="1"
     inkscape:current-layer="layer3" />
  <defs
     id="defs24508">
    <linearGradient
       id="linearGradient20629"
       inkscape:swatch="solid">
      <stop
         style="stop-color:#a2a2a2;stop-opacity:1;"
         offset="0"
         id="stop20627" />
    </linearGradient>
  </defs>
  <g
     inkscape:label="bg"
     inkscape:groupmode="layer"
     id="layer1"
     style="display:none"
     transform="translate(-80.565673,-222.68916)"
     sodipodi:insensitive="true">
    <image
       width="480.48334"
       height="640.29169"
       preserveAspectRatio="none"
       xlink:href="../../Downloads/processed-21CB8E2B-A80F-4CA0-8283-9DF8B1738A3A-007ED07B-5164-487E-A401-19A34514D400.jpeg.jpeg"
       id="image24597"
       x="-50.330608"
       y="-39.463696" />
  </g>
  <g
     inkscape:groupmode="layer"
     id="layer2"
     inkscape:label="lower"
     transform="translate(-10.994882,-90.448474)">
    <rect
       style="fill:#000000;fill-opacity:0;stroke-width:0.499999;stroke-linecap:round;stroke-linejoin:round;stroke-miterlimit:4;stroke-dasharray:none"
       id="rect13634"
       width="8.7478571"
       height="4.5509682"
       x="23.506485"
       y="93.392868" />
    <path
       style="fill:#9a4028;fill-opacity:1;stroke:#000000;stroke-width:0.264583px;stroke-linecap:butt;stroke-linejoin:miter;stroke-opacity:1"
       d="m 26.165556,92.938853 c 0,0 10.193043,1.365345 11.312286,0.798232 1.119243,-0.567113 2.055054,2.317596 1.966442,4.695121 -0.08861,2.377524 0.05938,13.231044 0.05938,13.231044 0,0 -16.261184,0.51796 -16.261184,-0.93362 0,-1.45158 2.923078,-17.790777 2.923078,-17.790777 z"
       id="path14953" />
    <path
       style="fill:#ce5f40;fill-opacity:1;stroke:#000000;stroke-width:0.264583px;stroke-linecap:butt;stroke-linejoin:miter;stroke-opacity:1"
       d="m 27.450147,95.154865 c 1.944333,0.601462 8.489513,0.169368 8.489513,0.169368 0,0 1.821373,-0.02484 2.019607,3.673258 0.198234,3.698109 0.07838,11.487319 0.07838,11.487319 0,0 -13.042492,0.29342 -12.92684,-0.63727 0.115651,-0.93069 2.33934,-14.692675 2.33934,-14.692675 z"
       id="path14955" />
    <path
       style="fill:#a7462b;fill-opacity:1;stroke:#000000;stroke-width:0.202687;stroke-linecap:butt;stroke-linejoin:miter;stroke-miterlimit:4;stroke-dasharray:none;stroke-opacity:1"
       d="m 33.437478,96.932583 2.456555,-0.05737 c 0,0 1.018417,0.162764 1.013509,0.827209 -0.0049,0.664444 -0.06249,2.413708 -0.06249,2.413708 0,0 0.197015,1.19428 -1.530946,1.07264 -1.727958,-0.12163 -1.927569,-1.716516 -1.937964,-2.489208 -0.01039,-0.772689 0.06135,-1.766983 0.06135,-1.766983 z"
       id="path16074" />
    <path
       style="fill:#a7462b;fill-opacity:1;stroke:#000000;stroke-width:0.202687;stroke-linecap:butt;stroke-linejoin:miter;stroke-miterlimit:4;stroke-dasharray:none;stroke-opacity:1"
       d="m 33.436293,102.08057 2.456555,-0.0574 c 0,0 1.018417,0.16277 1.013509,0.82721 -0.0049,0.66445 -0.06249,2.41371 -0.06249,2.41371 0,0 0.197015,1.19428 -1.530946,1.07264 -1.727958,-0.12163 -1.927569,-1.71652 -1.937964,-2.48921 -0.01039,-0.77269 0.06135,-1.76698 0.06135,-1.76698 z"
       id="path16074-7" />
    <path
       style="fill:#a7462b;fill-opacity:1;stroke:#000000;stroke-width:0.202687;stroke-linecap:butt;stroke-linejoin:miter;stroke-miterlimit:4;stroke-dasharray:none;stroke-opacity:1"
       d="m 28.077774,102.21577 2.456555,-0.0574 c 0,0 1.018417,0.16277 1.013509,0.82721 -0.0049,0.66444 -0.06249,2.41371 -0.06249,2.41371 0,0 0.197015,1.19428 -1.530946,1.07264 -1.727958,-0.12163 -1.927569,-1.71652 -1.937964,-2.48921 -0.01039,-0.77269 0.06135,-1.76698 0.06135,-1.76698 z"
       id="path16074-5" />
    <path
       style="fill:#a7462b;fill-opacity:1;stroke:#000000;stroke-width:0.22829;stroke-linecap:butt;stroke-linejoin:miter;stroke-miterlimit:4;stroke-dasharray:none;stroke-opacity:1"
       d="m 28.182774,96.358196 2.673297,-0.06688 c 0,0 1.108272,0.18974 1.102931,0.964308 -0.0053,0.774573 -0.06801,2.813756 -0.06801,2.813756 0,0 0.214398,1.39222 -1.666021,1.25042 -1.880417,-0.1418 -2.09764,-2.001008 -2.108952,-2.901765 -0.01131,-0.900755 0.06675,-2.059844 0.06675,-2.059844 z"
       id="path16074-6" />
  </g>
  <g
     inkscape:groupmode="layer"
     id="layer3"
     inkscape:label="bag"
     transform="translate(-10.994882,-90.448474)">
    <path
       style="display:inline;fill:#a2a2a2;fill-opacity:1;stroke:#000000;stroke-width:0.254;stroke-linecap:butt;stroke-linejoin:miter;stroke-miterlimit:4;stroke-dasharray:none;stroke-opacity:1"
       d="m 11.977878,90.60883 3.198015,29.75916 25.58328,-0.42296 0.740343,-12.74158 c 0,0 -5.140144,1.6542 -8.873414,-3.18069 -3.73326,-4.83489 -8.047783,-13.10187 -8.047783,-13.10187 0,0 -1.292283,1.5053 -2.426823,1.54951 -1.134541,0.0442 -10.173618,-1.86157 -10.173618,-1.86157 z"
       id="path13527" />
  </g>
  <g
     inkscape:groupmode="layer"
     id="layer4"
     inkscape:label="outline"
     transform="translate(-80.565673,-222.68916)"
     style="display:inline">
    <g
       id="g13412"
       transform="translate(2.8764882,77.475171)">
      <path
         style="display:inline;fill:none;stroke:#000000;stroke-width:1.365;stroke-linecap:butt;stroke-linejoin:miter;stroke-miterlimit:4;stroke-dasharray:none;stroke-opacity:1"
         d="m 95.465589,161.3027 5.621801,-0.0715"
         id="path25146"
         sodipodi:nodetypes="cc" />
      <g
         id="g13407">
        <path
           style="display:inline;fill:none;stroke:#000000;stroke-width:1.365;stroke-linecap:butt;stroke-linejoin:miter;stroke-miterlimit:4;stroke-dasharray:none;stroke-opacity:1"
           d="m 98.814934,161.26808 0.02543,2.90979"
           id="path25148" />
      </g>
    </g>
    <g
       id="g13404"
       transform="translate(7.8621089,75.405503)">
      <path
         style="display:inline;fill:none;stroke:#000000;stroke-width:1.365;stroke-linecap:butt;stroke-linejoin:miter;stroke-miterlimit:4;stroke-dasharray:none;stroke-opacity:1"
         d="m 79.631334,162.49081 6.605007,-0.67067"
         id="path25142"
         sodipodi:nodetypes="cc" />
      <path
         style="display:inline;fill:none;stroke:#000000;stroke-width:1.365;stroke-linecap:butt;stroke-linejoin:miter;stroke-miterlimit:4;stroke-dasharray:none;stroke-opacity:1"
         d="m 82.923453,162.40079 0.279569,3.53004"
         id="path25144" />
    </g>
    <path
       style="fill:#e5e5e5;fill-opacity:1;stroke:#000000;stroke-width:0.5;stroke-linecap:butt;stroke-linejoin:miter;stroke-miterlimit:4;stroke-dasharray:none;stroke-opacity:1"
       d="m 91.609372,251.39931 -0.0047,5.74344 c 0,0 -5.012458,2.51356 -1.267469,2.53888 3.744992,0.0253 1.267469,-2.53888 1.267469,-2.53888"
       id="path28293"
       sodipodi:nodetypes="ccsc" />
    <path
       style="fill:#e5e5e5;fill-opacity:1;stroke:#000000;stroke-width:0.5;stroke-linecap:butt;stroke-linejoin:miter;stroke-miterlimit:4;stroke-dasharray:none;stroke-opacity:1"
       d="m 101.92006,251.30599 0.14728,5.22914 c 0,0 -2.54713,4.38371 0.96273,3.14916 3.50987,-1.23455 -0.17673,-2.96106 -0.96273,-3.14916"
       id="path28295"
       sodipodi:nodetypes="ccsc" />
    <path
       style="display:inline;fill:none;stroke:#000000;stroke-width:0.5;stroke-linecap:butt;stroke-linejoin:miter;stroke-miterlimit:4;stroke-dasharray:none;stroke-opacity:1"
       d="m 83.367551,238.46259 c 0,0 -2.341355,1.6906 -2.532092,2.98008 -0.136342,0.92174 0.488979,1.87353 1.115772,2.56297 0.751894,0.82704 2.615809,0.55277 2.933491,1.62442 0.39004,1.31573 -3.953708,2.85018 -1.932824,3.63507 2.020888,0.7849 2.843419,-2.32088 2.015041,-3.45492"
       id="path27575"
       sodipodi:nodetypes="cssssc" />
    <path
       style="display:inline;fill:none;stroke:#000000;stroke-width:0.765;stroke-linecap:butt;stroke-linejoin:miter;stroke-miterlimit:4;stroke-dasharray:none;stroke-opacity:1"
       d="m 107.60844,242.7255 8.20128,1.35149 c 0,0 3.46898,0.57022 1.96387,-2.16979 -1.50511,-2.74001 -4.08835,3.02594 -1.96387,2.16979"
       id="path27577"
       sodipodi:nodetypes="ccsc" />
    <path
       style="fill:none;stroke:#000000;stroke-width:0.264583px;stroke-linecap:butt;stroke-linejoin:miter;stroke-opacity:1"
       d="m 109.55606,253.80849 c 0.23126,0.70691 0.32972,1.45438 0.44287,2.1877 0.0355,0.22992 0.10835,0.53846 0.10835,0.78069"
       id="path23817" />
    <path
       style="fill:none;stroke:#000000;stroke-width:0.264583px;stroke-linecap:butt;stroke-linejoin:miter;stroke-opacity:1"
       d="m 109.97007,255.29369 c 0.37761,-0.15037 2.0023,-0.18743 2.22734,-0.51796 0.0289,-0.0425 -0.0618,-0.1902 -0.0724,-0.2218"
       id="path23819" />
    <path
       style="fill:none;stroke:#000000;stroke-width:0.264583px;stroke-linecap:butt;stroke-linejoin:miter;stroke-opacity:1"
       d="m 111.59887,253.43669 c 0.0838,0.0312 0.18832,0.0302 0.2514,0.0935 0.51338,0.51575 0.62782,1.4723 0.74379,2.15225 0.032,0.18758 0.009,0.38235 0.0468,0.56895 0.0179,0.0893 0.0468,0.13155 0.0468,0.22856"
       id="path23821" />
    <path
       style="fill:none;stroke:#000000;stroke-width:0.264583px;stroke-linecap:butt;stroke-linejoin:miter;stroke-opacity:1"
       d="m 113.21105,254.19509 c -0.28594,0.40692 -0.44978,1.06126 -0.13593,1.47972 0.0196,0.0262 0.0455,0.12397 0.0935,0.14032 0.08,0.0272 0.14381,0.0269 0.22783,0.0437 0.20718,0.0414 0.39825,0.0699 0.60804,0 0.27909,-0.093 0.34296,-1.14435 0.27899,-1.40024 -0.0407,-0.16278 -0.27201,-0.21219 -0.3961,-0.2746 -0.0847,-0.0426 -0.23256,0.0416 -0.31791,0 -0.0238,-0.0116 -0.0102,-0.0549 -0.0281,-0.0744"
       id="path23825" />
    <path
       style="fill:none;stroke:#000000;stroke-width:0.264583px;stroke-linecap:butt;stroke-linejoin:miter;stroke-opacity:1"
       d="m 114.52798,253.85143 c 0.0979,0.0747 0.19586,0.14933 0.29379,0.22399 0.0468,0.0468 0.0895,0.098 0.14031,0.14032 0.0432,0.036 0.10057,0.0538 0.14032,0.0935 0.0998,0.0999 0.68804,1.12062 0.60804,1.21608 -0.032,0.0382 -0.0864,-0.23584 -0.0864,-0.45347 0,-0.29731 0.0469,-1.43952 0.54848,-1.43952"
       id="path23827" />
    <path
       style="fill:none;stroke:#000000;stroke-width:0.264583px;stroke-linecap:butt;stroke-linejoin:miter;stroke-opacity:1"
       d="m 117.34143,253.59729 c -0.0221,0.53656 0.24501,1.07211 0.24501,1.6003"
       id="path23829" />
    <path
       style="fill:none;stroke:#000000;stroke-width:0.264583px;stroke-linecap:butt;stroke-linejoin:miter;stroke-opacity:1"
       d="m 117.07944,252.38669 c 0,0.0632 0,0.12643 0,0.18965"
       id="path23831" />
    <path
       style="fill:none;stroke:#000000;stroke-width:0.264583px;stroke-linecap:butt;stroke-linejoin:miter;stroke-opacity:1"
       d="m 117.34143,253.59729 c 0.23837,-0.0594 0.47674,-0.11888 0.71511,-0.17832 0.0468,-0.0156 0.0925,-0.0348 0.14031,-0.0468 0.083,-0.0207 0.86333,-0.20711 0.87223,-0.18709 0.0404,0.0909 -0.0721,0.26444 -0.0935,0.35006 -0.062,0.24812 -0.12597,0.50386 -0.18709,0.74835 -0.0189,0.0756 0.0153,0.15742 0,0.23386 -0.0174,0.0867 -0.13153,0.30767 -0.13922,0.37254 -0.002,0.0135 0.0833,-0.048 0.40542,-0.22637 0.18612,-0.10308 0.22671,-0.17994 0.37417,-0.32741"
       id="path23833" />
    <path
       style="fill:none;stroke:#000000;stroke-width:0.264583px;stroke-linecap:butt;stroke-linejoin:miter;stroke-opacity:1"
       d="m 120.06299,253.06799 c -0.12553,0.87502 -0.26154,1.11742 0.63197,1.11742 0.1482,0 0.25274,0.0279 0.37418,-0.0935 0.0587,-0.0587 0.18975,-0.33273 0.23386,-0.42095 0.0407,-0.0813 0.10648,-0.14948 0.14032,-0.23386 0.13448,-0.33541 -0.21937,-0.66495 -0.50628,-0.73612 -0.0848,-0.021 -0.20554,0 -0.29653,0"
       id="path23835" />
    <path
       style="fill:none;stroke:#000000;stroke-width:0.264583px;stroke-linecap:butt;stroke-linejoin:miter;stroke-opacity:1"
       d="m 122.12882,252.46434 c 0.0879,0.19397 0.23778,1.61871 0.32704,1.65493 0.0238,0.01 -0.0328,-0.0418 -0.0382,-0.0669 -0.01,-0.0457 0,-0.0935 0,-0.14031 0,-0.24399 -0.0269,-0.50642 0,-0.74836 0.0215,-0.19384 0.36102,-0.9022 0.51449,-0.98221 0.11747,-0.0613 0.28632,-0.0483 0.41273,-0.0914 0.16883,-0.0575 0.25427,1.32199 0.41656,1.483 0.13054,0.12951 0.96523,0.0533 0.96523,-0.16151"
       id="path23837" />
  </g>
</svg>
