<?xml version="1.0" encoding="UTF-8" standalone="no"?>
<!-- Created with Inkscape (http://www.inkscape.org/) -->

<svg
   width="66.916924mm"
   height="57.810051mm"
   viewBox="0 0 66.916924 57.810051"
   version="1.1"
   id="svg5"
   inkscape:version="1.1.2 (0a00cf5339, 2022-02-04)"
   sodipodi:docname="ndp.svg"
   xmlns:inkscape="http://www.inkscape.org/namespaces/inkscape"
   xmlns:sodipodi="http://sodipodi.sourceforge.net/DTD/sodipodi-0.dtd"
   xmlns:xlink="http://www.w3.org/1999/xlink"
   xmlns="http://www.w3.org/2000/svg"
   xmlns:svg="http://www.w3.org/2000/svg">
  <sodipodi:namedview
     id="namedview7"
     pagecolor="#ffffff"
     bordercolor="#666666"
     borderopacity="1.0"
     inkscape:pageshadow="2"
     inkscape:pageopacity="0.0"
     inkscape:pagecheckerboard="0"
     inkscape:document-units="mm"
     showgrid="false"
     inkscape:zoom="0.98520767"
     inkscape:cx="-70.035996"
     inkscape:cy="119.2642"
     inkscape:window-width="1920"
     inkscape:window-height="954"
     inkscape:window-x="0"
     inkscape:window-y="0"
     inkscape:window-maximized="1"
     inkscape:current-layer="layer2" />
  <defs
     id="defs2" />
  <g
     inkscape:label="Layer 1"
     inkscape:groupmode="layer"
     id="layer1"
     style="display:none;opacity:0.398449"
     sodipodi:insensitive="true"
     transform="translate(-119.77384,-61.584815)">
    <image
       width="202.03284"
       height="269.22879"
       preserveAspectRatio="none"
       xlink:href="../../Pictures/hand-drawing-ndp.jpeg"
       id="image892"
       x="6.3588686"
       y="15.722986" />
  </g>
  <g
     inkscape:groupmode="layer"
     id="layer2"
     inkscape:label="Layer 2"
     transform="translate(-119.77384,-61.584815)">
    <path
       style="fill:none;stroke:#000000;stroke-width:0.264583px;stroke-linecap:butt;stroke-linejoin:miter;stroke-opacity:1"
       d="m 138.71332,88.375346 c 0,0 0.83701,10.783543 0.29058,10.690048 -0.54642,-0.0935 -0.85304,14.988346 2.751,14.351876 3.18176,-0.56189 13.78604,0.43548 18.12254,-0.85301"
       id="path952"
       sodipodi:nodetypes="cssc" />
    <path
       style="fill:none;stroke:#000000;stroke-width:0.264583px;stroke-linecap:butt;stroke-linejoin:miter;stroke-opacity:1"
       d="m 139.50679,87.77031 c 0,0 3.36442,0.351298 4.22661,-0.03593"
       id="path1082" />
    <path
       style="fill:none;stroke:#000000;stroke-width:0.264583px;stroke-linecap:butt;stroke-linejoin:miter;stroke-opacity:1"
       d="m 144.01415,84.245645 c 0,0 0.31996,2.863503 0.39955,3.573314 0.0796,0.709811 -1.1327,4.278405 0.53594,4.234344 1.66864,-0.04406 10.87428,-0.637032 10.87428,-0.637032"
       id="path1086" />
    <path
       style="fill:none;stroke:#000000;stroke-width:0.264583px;stroke-linecap:butt;stroke-linejoin:miter;stroke-opacity:1"
       d="m 156.30504,90.814511 -0.24285,-6.279462 c 0,0 -0.59324,-2.021774 -1.72831,-1.878579 -1.13507,0.143195 -8.6722,0.720825 -8.6722,0.720825"
       id="path1088" />
    <path
       style="fill:none;stroke:#000000;stroke-width:0.264583px;stroke-linecap:butt;stroke-linejoin:miter;stroke-opacity:1"
       d="m 149.92264,86.556563 0.2776,3.691461 c 0,0 1.59718,-2.052327 1.50866,-2.937853 -0.0885,-0.885526 -1.77498,-2.20785 -2.16719,-2.143596"
       id="path1092" />
    <path
       style="fill:none;stroke:#000000;stroke-width:0.264583px;stroke-linecap:butt;stroke-linejoin:miter;stroke-opacity:1"
       d="m 153.15174,89.956522 c 0,0 -0.093,-4.050892 -0.49083,-4.407831"
       id="path1094" />
    <path
       style="fill:none;stroke:#000000;stroke-width:0.264583px;stroke-linecap:butt;stroke-linejoin:miter;stroke-opacity:1"
       d="m 152.66091,85.548691 c 0,0 1.69566,-0.15998 1.64373,0.243115 -0.0519,0.403098 -0.82167,2.098358 -1.08537,2.131269"
       id="path1096" />
    <path
       style="fill:none;stroke:#000000;stroke-width:0.264583px;stroke-linecap:butt;stroke-linejoin:miter;stroke-opacity:1"
       d="m 146.27511,90.070867 c 0,0 0.36336,-4.096395 0.11277,-4.320759 -0.25059,-0.224364 2.08839,3.750342 1.91202,4.172058 -0.17637,0.421717 -0.0254,-3.889996 -0.34055,-4.240641"
       id="path1291" />
    <path
       style="fill:none;stroke:#000000;stroke-width:0.5;stroke-linecap:butt;stroke-linejoin:miter;stroke-miterlimit:4;stroke-dasharray:none;stroke-opacity:1"
       d="m 142.69825,95.759454 4.09653,-0.4406"
       id="path1293" />
    <path
       style="fill:none;stroke:#000000;stroke-width:0.5;stroke-linecap:butt;stroke-linejoin:miter;stroke-miterlimit:4;stroke-dasharray:none;stroke-opacity:1"
       d="m 145.00183,96.120589 0.19853,1.535017"
       id="path1295" />
    <path
       style="fill:none;stroke:#000000;stroke-width:0.5;stroke-linecap:butt;stroke-linejoin:miter;stroke-miterlimit:4;stroke-dasharray:none;stroke-opacity:1"
       d="m 154.30796,95.556986 0.19853,1.535017"
       id="path1295-3" />
    <path
       style="fill:none;stroke:#000000;stroke-width:0.5;stroke-linecap:butt;stroke-linejoin:miter;stroke-miterlimit:4;stroke-dasharray:none;stroke-opacity:1"
       d="m 152.09744,94.914184 c 0.81944,0.166667 4.00658,0.456597 4.00658,0.456597"
       id="path1297" />
    <path
       style="fill:none;stroke:#000000;stroke-width:0.264583px;stroke-linecap:butt;stroke-linejoin:miter;stroke-opacity:1"
       d="m 156.36864,86.729 c 0,0 3.48637,-0.592055 4.24667,6.509464 0.7603,7.101516 0.84422,18.970436 0.84422,18.970436"
       id="path1301" />
    <path
       style="fill:none;stroke:#000000;stroke-width:0.5;stroke-linecap:butt;stroke-linejoin:miter;stroke-miterlimit:4;stroke-dasharray:none;stroke-opacity:1"
       d="m 160.19307,94.682737 c 1.35064,-0.617886 2.37924,-5.023358 2.37924,-5.023358 l 2.84448,3.214804"
       id="path1303" />
    <path
       style="fill:none;stroke:#000000;stroke-width:0.5;stroke-linecap:butt;stroke-linejoin:miter;stroke-miterlimit:4;stroke-dasharray:none;stroke-opacity:1"
       d="m 138.68998,98.846141 c 0,0 -1.89537,-5.659868 -2.1731,-5.692388 -0.27774,-0.03252 -3.04906,1.553376 -2.68294,1.64071"
       id="path1305" />
    <path
       style="fill:none;stroke:#000000;stroke-width:0.264583px;stroke-linecap:butt;stroke-linejoin:miter;stroke-opacity:1"
       d="m 139.17647,87.807354 -0.52626,-1.728795 c 0,0 2.27782,-1.787147 2.64481,-4.974021 -3.54761,2.133891 -9.47682,2.315768 -9.47682,2.315768 0,0 3.06938,3.980476 6.75927,2.862718"
       id="path1307"
       sodipodi:nodetypes="ccccc" />
    <path
       style="fill:none;stroke:#000000;stroke-width:0.264583px;stroke-linecap:butt;stroke-linejoin:miter;stroke-opacity:1"
       d="m 132.33761,82.870605 2.82167,-4.100854 c 0,0 0.72122,0.34199 1.05232,-0.206004 l 3.8087,2.695263"
       id="path1513"
       sodipodi:nodetypes="cccc" />
    <path
       style="fill:none;stroke:#000000;stroke-width:0.264583px;stroke-linecap:butt;stroke-linejoin:miter;stroke-opacity:1"
       d="M 136.5039,81.357749 135.84745,78.97012"
       id="path1515" />
    <path
       style="fill:#000000;stroke-width:3.77953;stroke-linecap:round;stroke-linejoin:round;stroke-opacity:0.5"
       id="path1672"
       sodipodi:type="arc"
       sodipodi:cx="135.52777"
       sodipodi:cy="78.151962"
       sodipodi:rx="0.40772834"
       sodipodi:ry="0.38649467"
       sodipodi:start="0"
       sodipodi:end="6.1216436"
       sodipodi:arc-type="slice"
       d="m 135.9355,78.151962 a 0.40772834,0.38649467 0 0 1 -0.39127,0.38618 0.40772834,0.38649467 0 0 1 -0.42286,-0.354996 0.40772834,0.38649467 0 0 1 0.35712,-0.414845 0.40772834,0.38649467 0 0 1 0.4517,0.321497 l -0.40242,0.06216 z" />
    <path
       style="fill:none;stroke:#000000;stroke-width:0.264583px;stroke-linecap:butt;stroke-linejoin:miter;stroke-opacity:1"
       d="m 133.06543,77.868626 c 0.64981,-0.784998 1.39994,-1.758593 2.5384,-1.735969 1.13846,0.02262 2.58513,0.304319 2.68398,0.915181"
       id="path1729" />
    <path
       style="fill:none;stroke:#000000;stroke-width:0.264583px;stroke-linecap:butt;stroke-linejoin:miter;stroke-opacity:1"
       d="m 131.84519,75.409413 c 0.22031,-0.22031 1.85651,-1.852244 3.06136,-2.112054 1.20485,-0.259813 1.53087,-1.005679 3.08658,-0.180441"
       id="path1731" />
    <path
       style="fill:none;stroke:#000000;stroke-width:0.264583px;stroke-linecap:butt;stroke-linejoin:miter;stroke-opacity:1"
       d="m 129.21184,72.099926 c 0,0 3.68038,-4.47335 7.21185,-2.730707"
       id="path1733" />
    <path
       style="fill:none;stroke:#000000;stroke-width:0.264583px;stroke-linecap:butt;stroke-linejoin:miter;stroke-opacity:1"
       d="m 147.31003,114.22499 c 0.0949,0.0822 0.72111,3.82336 0.72111,3.82336 0,0 -2.43974,0.45073 -1.907,0.77318 0.53275,0.32244 2.02332,0.69631 2.36445,0.19996 0.34113,-0.49635 -0.49815,-0.97805 -0.49815,-0.97805"
       id="path1735" />
    <path
       style="fill:none;stroke:#000000;stroke-width:0.264583px;stroke-linecap:butt;stroke-linejoin:miter;stroke-opacity:1"
       d="m 154.92235,113.67524 0.40951,3.99693 c 0,0 1.43912,1.76235 1.86611,-0.58693 0.42699,-2.34929 -1.79253,0.71795 -1.79253,0.71795"
       id="path1737" />
    <text
       xml:space="preserve"
       style="font-size:3.52778px;line-height:1.25;font-family:'Cascadia Code';-inkscape-font-specification:'Cascadia Code';stroke-width:0.264583"
       x="163.48355"
       y="108.49631"
       id="text11628"><tspan
         sodipodi:role="line"
         id="tspan11626"
         style="font-size:3.52778px;stroke-width:0.264583"
         x="163.48355"
         y="108.49631">Network </tspan><tspan
         sodipodi:role="line"
         style="font-size:3.52778px;stroke-width:0.264583"
         x="163.48355"
         y="112.90603"
         id="tspan22276">Discovery</tspan><tspan
         sodipodi:role="line"
         style="font-size:3.52778px;stroke-width:0.264583"
         x="163.48355"
         y="117.31576"
         id="tspan22280">Protocol</tspan></text>
    <ellipse
       style="fill:#05285b;fill-opacity:1;stroke:none;stroke-width:0.1;stroke-linecap:round;stroke-linejoin:round;stroke-miterlimit:4;stroke-dasharray:none;stroke-opacity:1"
       id="path27934"
       cx="122.50383"
       cy="86.314072"
       rx="2.7299852"
       ry="2.8685997" />
    <ellipse
       style="fill:#281845;fill-opacity:1;stroke:none;stroke-width:0.1;stroke-linecap:round;stroke-linejoin:round;stroke-miterlimit:4;stroke-dasharray:none;stroke-opacity:1"
       id="path27934-6"
       cx="160.72652"
       cy="67.997086"
       rx="2.7299852"
       ry="2.8685997" />
    <ellipse
       style="fill:#4d1230;fill-opacity:1;stroke:none;stroke-width:0.1;stroke-linecap:round;stroke-linejoin:round;stroke-miterlimit:4;stroke-dasharray:none;stroke-opacity:1"
       id="path27934-7"
       cx="178.88445"
       cy="68.34433"
       rx="2.7299852"
       ry="2.8685997" />
    <ellipse
       style="fill:#4f1319;fill-opacity:1;stroke:none;stroke-width:0.1;stroke-linecap:round;stroke-linejoin:round;stroke-miterlimit:4;stroke-dasharray:none;stroke-opacity:1"
       id="path27934-5"
       cx="183.96078"
       cy="86.474998"
       rx="2.7299852"
       ry="2.8685997" />
    <ellipse
       style="fill:#250657;fill-opacity:1;stroke:none;stroke-width:0.1;stroke-linecap:round;stroke-linejoin:round;stroke-miterlimit:4;stroke-dasharray:none;stroke-opacity:1"
       id="path27934-3"
       cx="138.03773"
       cy="64.453415"
       rx="2.7299852"
       ry="2.8685997" />
  </g>
</svg>
