<?xml version="1.0" encoding="UTF-8" standalone="no"?>
<!-- Created with Inkscape (http://www.inkscape.org/) -->

<svg
   width="81.419052mm"
   height="71.408607mm"
   viewBox="0 0 81.419053 71.408605"
   version="1.1"
   id="svg5"
   inkscape:version="1.1.2 (0a00cf5339, 2022-02-04)"
   sodipodi:docname="ndp5.svg"
   xmlns:inkscape="http://www.inkscape.org/namespaces/inkscape"
   xmlns:sodipodi="http://sodipodi.sourceforge.net/DTD/sodipodi-0.dtd"
   xmlns:xlink="http://www.w3.org/1999/xlink"
   xmlns="http://www.w3.org/2000/svg"
   xmlns:svg="http://www.w3.org/2000/svg">
  <sodipodi:namedview
     id="namedview7"
     pagecolor="#ffffff"
     bordercolor="#666666"
     borderopacity="1.0"
     inkscape:pageshadow="2"
     inkscape:pageopacity="0.0"
     inkscape:pagecheckerboard="0"
     inkscape:document-units="mm"
     showgrid="true"
     inkscape:zoom="1.2055089"
     inkscape:cx="143.91724"
     inkscape:cy="67.677536"
     inkscape:window-width="1920"
     inkscape:window-height="954"
     inkscape:window-x="0"
     inkscape:window-y="0"
     inkscape:window-maximized="1"
     inkscape:current-layer="layer5"
     inkscape:lockguides="false"
     showguides="false">
    <inkscape:grid
       type="xygrid"
       id="grid46749"
       originx="84.505688"
       originy="-94.53329" />
  </sodipodi:namedview>
  <defs
     id="defs2">
    <inkscape:perspective
       sodipodi:type="inkscape:persp3d"
       inkscape:vp_x="0 : 42.503583 : 1"
       inkscape:vp_y="0 : 999.99991 : 0"
       inkscape:vp_z="66.916921 : 42.503583 : 1"
       inkscape:persp3d-origin="33.458462 : 32.868573 : 1"
       id="perspective46053" />
  </defs>
  <g
     inkscape:groupmode="layer"
     id="layer5"
     inkscape:label="links"
     transform="translate(84.505686,-94.533316)"
     style="display:inline" />
  <g
     inkscape:label="Layer 1"
     inkscape:groupmode="layer"
     id="layer1"
     style="display:none;opacity:0.398449"
     sodipodi:insensitive="true"
     transform="translate(-35.268154,-156.11813)">
    <image
       width="202.03284"
       height="269.22879"
       preserveAspectRatio="none"
       xlink:href="../../Pictures/hand-drawing-ndp.jpeg"
       id="image892"
       x="6.3588686"
       y="15.722986" />
  </g>
  <g
     inkscape:groupmode="layer"
     id="layer2"
     inkscape:label="Layer 2"
     transform="translate(-35.268154,-156.11813)"
     style="display:inline">
    <ellipse
       style="fill:none;stroke:#000000;stroke-width:0.5;stroke-linecap:round;stroke-linejoin:round;stroke-miterlimit:4;stroke-dasharray:none;stroke-opacity:1"
       id="path28812"
       cx="57.782146"
       cy="199.09029"
       rx="5.4507146"
       ry="1.5288541" />
    <circle
       id="path29051"
       style="fill:#000000;stroke:#000000;stroke-width:0.264583"
       cx="51.840607"
       cy="199.97438"
       r="0.0016899868" />
    <circle
       id="path29053"
       style="fill:#000000;stroke:#000000;stroke-width:0.264583"
       cx="51.840607"
       cy="199.97438"
       r="0.0016899868" />
    <circle
       id="path29158"
       style="fill:#05285b;stroke:#000000;stroke-width:0.264583"
       cx="51.905907"
       cy="200.04373"
       r="0.0016899868" />
    <circle
       id="path29160"
       style="fill:#05285b;stroke:#000000;stroke-width:0.264583"
       cx="51.905907"
       cy="200.04373"
       r="0.0016899868" />
    <path
       style="fill:none;stroke:#000000;stroke-width:0.5;stroke-linecap:round;stroke-linejoin:round;stroke-miterlimit:4;stroke-dasharray:none;stroke-opacity:1"
       d="m 51.810839,199.97988 0.140179,7.93499 c 0,0 3.267125,4.62432 13.246967,-0.22188 l -1.267512,-8.91925"
       id="path29236" />
    <ellipse
       style="fill:none;stroke:#000000;stroke-width:0.5;stroke-linecap:round;stroke-linejoin:round;stroke-miterlimit:4;stroke-dasharray:none;stroke-opacity:1"
       id="path28812-0"
       cx="104.95053"
       cy="217.31877"
       rx="5.4507146"
       ry="1.5288541" />
    <path
       style="fill:none;stroke:#000000;stroke-width:0.5;stroke-linecap:round;stroke-linejoin:round;stroke-miterlimit:4;stroke-dasharray:none;stroke-opacity:1"
       d="m 99.083595,218.38138 1.100525,6.55651 c 0,0 1.54094,4.68539 11.52078,-0.16081 l -0.60604,-7.77486"
       id="path29236-23"
       sodipodi:nodetypes="cccc" />
    <path
       style="fill:none;stroke:#000000;stroke-width:0.264583px;stroke-linecap:round;stroke-linejoin:miter;stroke-opacity:1"
       d="m 53.124376,204.45721 c 0.460795,0 2.409266,-0.6946 2.409266,-0.6946"
       id="path29351" />
    <path
       style="fill:none;stroke:#000000;stroke-width:0.264583px;stroke-linecap:round;stroke-linejoin:miter;stroke-opacity:1"
       d="m 60.483568,202.73861 2.209554,-0.64517"
       id="path29353" />
    <path
       style="fill:none;stroke:#000000;stroke-width:0.5;stroke-linecap:round;stroke-linejoin:miter;stroke-miterlimit:4;stroke-dasharray:none;stroke-opacity:1"
       d="m 61.503505,203.94357 -0.0177,-1.31734"
       id="path29355" />
    <path
       style="fill:none;stroke:#000000;stroke-width:0.522147;stroke-linecap:round;stroke-linejoin:miter;stroke-miterlimit:4;stroke-dasharray:none;stroke-opacity:1"
       d="m 55.201094,205.29163 0.07442,-0.96545"
       id="path29357" />
    <ellipse
       style="fill:none;stroke:#000000;stroke-width:0.5;stroke-linecap:round;stroke-linejoin:round;stroke-miterlimit:4;stroke-dasharray:none;stroke-opacity:1"
       id="path28812-5"
       cx="63.037418"
       cy="166.31528"
       rx="5.4507146"
       ry="1.5288541" />
    <circle
       id="path29051-6"
       style="fill:#000000;stroke:#000000;stroke-width:0.264583"
       cx="57.440228"
       cy="165.98668"
       r="0.0016899868" />
    <circle
       id="path29053-2"
       style="fill:#000000;stroke:#000000;stroke-width:0.264583"
       cx="57.440228"
       cy="165.98668"
       r="0.0016899868" />
    <circle
       id="path29158-9"
       style="fill:#05285b;stroke:#000000;stroke-width:0.264583"
       cx="57.505527"
       cy="166.05603"
       r="0.0016899868" />
    <circle
       id="path29160-1"
       style="fill:#05285b;stroke:#000000;stroke-width:0.264583"
       cx="57.505527"
       cy="166.05603"
       r="0.0016899868" />
    <path
       style="fill:none;stroke:#000000;stroke-width:0.5;stroke-linecap:round;stroke-linejoin:round;stroke-miterlimit:4;stroke-dasharray:none;stroke-opacity:1"
       d="m 57.748252,166.66356 0.894443,7.09523 c 0,0 1.170868,5.24904 11.15071,0.40283 l -0.977713,-7.16551"
       id="path29236-2"
       sodipodi:nodetypes="cccc" />
    <ellipse
       style="fill:none;stroke:#000000;stroke-width:0.5;stroke-linecap:round;stroke-linejoin:round;stroke-miterlimit:4;stroke-dasharray:none;stroke-opacity:1"
       id="path28812-5-9"
       cx="95.955734"
       cy="178.72301"
       rx="5.4507146"
       ry="1.5288541" />
    <path
       style="fill:none;stroke:#000000;stroke-width:0.5;stroke-linecap:round;stroke-linejoin:round;stroke-miterlimit:4;stroke-dasharray:none;stroke-opacity:1"
       d="m 90.666567,179.07129 v 7.9375 c 0,0 5.456368,2.6544 11.052233,-0.85233 l 0.0152,-6.75262"
       id="path29236-2-2"
       sodipodi:nodetypes="cccc" />
    <path
       style="fill:none;stroke:#000000;stroke-width:0.5;stroke-linecap:round;stroke-linejoin:miter;stroke-miterlimit:4;stroke-dasharray:none;stroke-opacity:1"
       d="m 61.291074,173.23037 c 0.05022,-0.16752 1.453583,-2.50742 1.453583,-2.50742 l -2.333013,-1.0512"
       id="path30297" />
    <path
       style="fill:none;stroke:#000000;stroke-width:0.5;stroke-linecap:round;stroke-linejoin:miter;stroke-miterlimit:4;stroke-dasharray:none;stroke-opacity:1"
       d="m 60.524155,171.56829 1.658541,-0.13539"
       id="path30299" />
    <path
       style="fill:none;stroke:#000000;stroke-width:0.5;stroke-linecap:round;stroke-linejoin:miter;stroke-miterlimit:4;stroke-dasharray:none;stroke-opacity:1"
       d="m 66.663107,168.27055 c 0,0 -1.984335,2.53246 -1.690012,2.64753 0.294322,0.11507 2.848422,1.04695 2.848422,1.04695"
       id="path30301" />
    <path
       style="fill:none;stroke:#000000;stroke-width:0.5;stroke-linecap:round;stroke-linejoin:miter;stroke-miterlimit:4;stroke-dasharray:none;stroke-opacity:1"
       d="m 65.905107,170.55603 c 0.671848,-0.0654 1.49253,-0.54885 1.49253,-0.54885"
       id="path30303" />
    <path
       style="fill:none;stroke:#000000;stroke-width:0.264583px;stroke-linecap:butt;stroke-linejoin:miter;stroke-opacity:1"
       d="m 58.102233,169.32215 c 0,0 -2.798331,0.0564 -3.241815,-1.59403"
       id="path30469" />
    <path
       style="fill:none;stroke:#000000;stroke-width:0.554;stroke-linecap:butt;stroke-linejoin:miter;stroke-miterlimit:4;stroke-dasharray:none;stroke-opacity:1"
       d="m 54.860418,167.72812 c -0.230086,-0.26331 -1.550352,-5.71017 -1.550352,-5.71017 0,0 -2.064503,-1.93344 -0.473976,-4.83874 1.590529,-2.9053 3.321909,3.14118 2.457995,3.3387 -0.863916,0.19751 -2.202595,0.60817 -1.951141,-1.30813 0.251454,-1.9163 1.652474,0.17875 1.575406,0.58688"
       id="path30473" />
    <path
       style="fill:none;stroke:#000000;stroke-width:0.5;stroke-linecap:round;stroke-linejoin:miter;stroke-miterlimit:4;stroke-dasharray:none;stroke-opacity:1"
       d="m 91.165416,182.66499 c 0,0 1.380196,0.46119 2.146175,-0.0947"
       id="path51195" />
    <path
       style="fill:none;stroke:#000000;stroke-width:0.5;stroke-linecap:round;stroke-linejoin:miter;stroke-miterlimit:4;stroke-dasharray:none;stroke-opacity:1"
       d="m 95.881122,182.53053 c 0,0 1.884818,-0.80148 2.511703,-0.45224"
       id="path51197" />
    <path
       style="fill:none;stroke:#000000;stroke-width:0.5;stroke-linecap:round;stroke-linejoin:miter;stroke-miterlimit:4;stroke-dasharray:none;stroke-opacity:1"
       d="m 97.113098,182.52788 c 0.0013,0.19624 -0.199089,1.49005 -0.199089,1.49005"
       id="path51199" />
    <path
       style="fill:none;stroke:#000000;stroke-width:0.5;stroke-linecap:round;stroke-linejoin:miter;stroke-miterlimit:4;stroke-dasharray:none;stroke-opacity:1"
       d="m 92.159095,183.26432 0.105548,1.06953"
       id="path51236" />
    <path
       style="fill:#20c997;fill-opacity:0.5;stroke:#000000;stroke-width:0.5;stroke-linecap:butt;stroke-linejoin:miter;stroke-miterlimit:4;stroke-dasharray:none;stroke-opacity:1"
       d="m 97.636367,177.85191 1.82697,-3.08963 4.246213,4.41246 c 0,0 1.99504,-3.14941 -0.8855,-6.30604 -2.880541,-3.15663 -7.496898,-1.78037 -7.496898,-1.78037 l 4.136185,3.67395"
       id="path51402"
       sodipodi:nodetypes="cccscc" />
    <path
       style="fill:none;stroke:#000000;stroke-width:0.5;stroke-linecap:butt;stroke-linejoin:miter;stroke-miterlimit:4;stroke-dasharray:none;stroke-opacity:1"
       d="m 101.24452,171.79893 c 0,0 -1.278615,1.14865 -3.271869,1.1797"
       id="path51404" />
    <path
       style="fill:none;stroke:#000000;stroke-width:0.5;stroke-linecap:butt;stroke-linejoin:miter;stroke-miterlimit:4;stroke-dasharray:none;stroke-opacity:1"
       d="m 99.756641,174.07932 c 0,0 2.041859,-0.80965 3.040169,-0.32804"
       id="path51406" />
    <path
       style="fill:none;stroke:#000000;stroke-width:0.5;stroke-linecap:butt;stroke-linejoin:miter;stroke-miterlimit:4;stroke-dasharray:none;stroke-opacity:1"
       d="m 103.00485,174.84557 c 0,0 -1.55596,1.30711 -1.71534,1.27576"
       id="path51408" />
    <path
       style="fill:none;stroke:#000000;stroke-width:0.5;stroke-linecap:butt;stroke-linejoin:miter;stroke-miterlimit:4;stroke-dasharray:none;stroke-opacity:1"
       d="m 104.25492,175.59953 c 0,0 -1.36731,1.50097 -1.60989,2.2852"
       id="path51410" />
    <path
       style="fill:none;stroke:#000000;stroke-width:0.264583px;stroke-linecap:butt;stroke-linejoin:miter;stroke-opacity:1"
       d="m 101.6775,183.94964 2.63222,1.05124"
       id="path52246" />
    <path
       style="fill:none;stroke:#000000;stroke-width:0.265;stroke-linecap:round;stroke-linejoin:round;stroke-miterlimit:4;stroke-dasharray:none;stroke-opacity:1"
       d="m 102.71096,181.09354 2.73249,-0.12381 -1.39835,2.64791 -1.35263,-2.43546"
       id="path52248" />
    <path
       style="fill:none;stroke:#000000;stroke-width:0.264583px;stroke-linecap:butt;stroke-linejoin:round;stroke-opacity:1"
       d="m 104.0451,183.61764 0.16205,2.69361 -0.42262,0.68209 1.0739,-0.023 -0.66156,-0.68152"
       id="path52250" />
    <ellipse
       style="fill:#000000;fill-opacity:1;stroke:none;stroke-width:0.815939;stroke-linecap:round;stroke-linejoin:round;stroke-miterlimit:4;stroke-dasharray:none;stroke-opacity:1;paint-order:markers fill stroke"
       id="path52274"
       cx="104.17358"
       cy="184.97467"
       rx="0.54848135"
       ry="0.54133064" />
    <ellipse
       style="fill:#000000;fill-opacity:1;stroke:none;stroke-width:0.815939;stroke-linecap:round;stroke-linejoin:round;stroke-miterlimit:4;stroke-dasharray:none;stroke-opacity:1;paint-order:markers fill stroke"
       id="path52274-5"
       cx="54.359245"
       cy="167.11726"
       rx="0.54848135"
       ry="0.54133064" />
    <rect
       style="fill:none;fill-opacity:1;stroke:none;stroke-width:0.264999;stroke-linecap:round;stroke-linejoin:round;stroke-miterlimit:4;stroke-dasharray:none;stroke-opacity:1;paint-order:markers fill stroke"
       id="rect52624"
       width="22.199183"
       height="16.363026"
       x="35.268154"
       y="211.16371" />
    <path
       style="fill:none;stroke:#000000;stroke-width:0.264583px;stroke-linecap:butt;stroke-linejoin:miter;stroke-opacity:1"
       d="m 101.98066,223.14665 c 1.30377,-0.009 1.34993,0.002 2.28012,-0.47989"
       id="path54883" />
    <path
       style="fill:none;stroke:#000000;stroke-width:0.264583px;stroke-linecap:butt;stroke-linejoin:miter;stroke-opacity:1"
       d="m 106.49212,222.6925 c 0,0 2.33941,-0.29982 2.53983,-0.77336"
       id="path54885" />
    <path
       style="fill:none;stroke:#000000;stroke-width:0.264583px;stroke-linecap:butt;stroke-linejoin:miter;stroke-opacity:1"
       d="m 110.64134,223.19011 c 0,0 2.33418,-2.34265 3.40009,-2.18449"
       id="path54887" />
    <path
       style="fill:none;stroke:#000000;stroke-width:0.5;stroke-linecap:butt;stroke-linejoin:miter;stroke-miterlimit:4;stroke-dasharray:none;stroke-opacity:1"
       d="m 112.67826,221.6469 c 0,0 1.30593,-3.57241 1.67518,0.44524 -0.0973,3.25794 -1.3379,4.75496 -1.3379,4.75496"
       id="path54889"
       sodipodi:nodetypes="ccc" />
    <ellipse
       style="fill:#000000;fill-opacity:1;stroke:none;stroke-width:0.815939;stroke-linecap:round;stroke-linejoin:round;stroke-miterlimit:4;stroke-dasharray:none;stroke-opacity:1;paint-order:markers fill stroke"
       id="path52274-7"
       cx="114.14054"
       cy="221.15707"
       rx="0.54848135"
       ry="0.54133064" />
  </g>
  <g
     inkscape:groupmode="layer"
     id="layer3"
     inkscape:label="Layer 3"
     transform="translate(84.505686,-94.533316)">
    <path
       style="fill:#44d2a8;fill-opacity:0.5;stroke:#000000;stroke-width:0.5;stroke-linecap:round;stroke-linejoin:miter;stroke-miterlimit:4;stroke-dasharray:none;stroke-opacity:1;paint-order:markers fill stroke"
       d="m -58.030887,101.00136 c 0,0 4.43171,4.35936 7.146703,4.83265 0.954035,-4.75135 1.944335,-10.262899 1.944335,-10.262899 z"
       id="path30589"
       sodipodi:nodetypes="cccc" />
    <path
       style="fill:none;stroke:#000000;stroke-width:0.5;stroke-linecap:round;stroke-linejoin:miter;stroke-miterlimit:4;stroke-dasharray:none;stroke-opacity:1;paint-order:markers fill stroke"
       d="m -51.670057,97.259877 c 0,0 0.723315,3.281933 1.973516,2.796563"
       id="path30795" />
    <path
       style="fill:none;stroke:#000000;stroke-width:0.5;stroke-linecap:round;stroke-linejoin:miter;stroke-miterlimit:4;stroke-dasharray:none;stroke-opacity:1;paint-order:markers fill stroke"
       d="m -53.920468,98.58422 c 0,0 2.367569,5.07161 3.544925,4.53739"
       id="path30797" />
    <path
       style="fill:none;stroke:#000000;stroke-width:0.5;stroke-linecap:round;stroke-linejoin:miter;stroke-miterlimit:4;stroke-dasharray:none;stroke-opacity:1;paint-order:markers fill stroke"
       d="m -56.240623,100.26212 c 0,0 4.635539,5.64072 5.282475,5.14917"
       id="path30799" />
    <path
       id="path55414"
       style="opacity:1;fill:#44d2a8;fill-opacity:0.5;stroke:#000000;stroke-width:1.00157;stroke-linecap:round;stroke-linejoin:round;stroke-miterlimit:4;stroke-dasharray:none;stroke-opacity:1;paint-order:markers fill stroke"
       d="m -37.583984,560.44336 a 2.8969482,8.9889592 80.439195 0 0 -3.970704,0.36523 2.8969482,8.9889592 80.439195 0 0 -8.382812,4.34961 2.8969482,8.9889592 80.439195 0 0 0.06641,0.21289 l 3.644532,19.51368 a 5.3778959,21.955932 83.55799 0 0 -9.583985,5.64453 5.3778959,21.955932 83.55799 0 0 22.421875,2.8789 5.3778959,21.955932 83.55799 0 0 21.212891,-7.80664 5.3778959,21.955932 83.55799 0 0 -12.595703,-3.41797 l -7.361328,-19.59765 -0.101563,0.0156 a 2.8969482,8.9889592 80.439195 0 0 0.02539,-0.42968 2.8969482,8.9889592 80.439195 0 0 -5.375,-1.72852 z"
       transform="scale(0.26458333)" />
    <g
       id="g169900">
      <path
         style="fill:none;stroke:#000000;stroke-width:0.265;stroke-linecap:round;stroke-linejoin:miter;stroke-miterlimit:4;stroke-dasharray:none;stroke-opacity:1"
         d="m 82.896416,204.87917 c 0.354217,0.0527 1.838678,-0.16269 1.838678,-0.16269"
         id="path29351-6"
         transform="translate(-119.77384,-61.58481)" />
      <path
         style="fill:none;stroke:#000000;stroke-width:0.264583px;stroke-linecap:round;stroke-linejoin:miter;stroke-opacity:1"
         d="m 86.707325,204.46448 2.297256,0.14489"
         id="path29353-0"
         transform="translate(-119.77384,-61.58481)" />
      <path
         style="fill:none;stroke:#000000;stroke-width:0.5;stroke-linecap:round;stroke-linejoin:miter;stroke-miterlimit:4;stroke-dasharray:none;stroke-opacity:1"
         d="m 87.978938,206.47191 -0.0177,-1.31734"
         id="path29355-6"
         transform="translate(-119.77384,-61.58481)" />
      <path
         style="fill:none;stroke:#000000;stroke-width:0.522147;stroke-linecap:round;stroke-linejoin:miter;stroke-miterlimit:4;stroke-dasharray:none;stroke-opacity:1"
         d="m 84.061634,206.36008 0.07442,-0.96546"
         id="path29357-2"
         transform="translate(-119.77384,-61.58481)" />
      <path
         style="fill:none;stroke:#000000;stroke-width:0.264583px;stroke-linecap:butt;stroke-linejoin:miter;stroke-opacity:1"
         d="m -34.395833,134.9375 c -1.823306,1.79387 -3.96875,5.29166 -3.96875,5.29166 l 7.9375,1.32292 3.96875,-5.29167 c 0,0 -4.888157,-1.74965 -7.9375,-1.32291 z"
         id="path46786"
         sodipodi:nodetypes="ccccc" />
      <path
         style="fill:none;stroke:#000000;stroke-width:0.264583px;stroke-linecap:butt;stroke-linejoin:miter;stroke-opacity:1"
         d="m -38.364583,140.22916 0.07343,5.27896 7.9375,1.5875 -0.07343,-5.54354"
         id="path46788"
         sodipodi:nodetypes="cccc" />
      <path
         style="fill:none;stroke:#000000;stroke-width:0.264583px;stroke-linecap:round;stroke-linejoin:miter;stroke-opacity:1"
         d="m -26.458333,136.26041 c 0,0 0.271752,3.48277 0,5.29167 -0.797508,2.22624 -3.96875,5.55625 -3.96875,5.55625"
         id="path46790"
         sodipodi:nodetypes="ccc" />
      <path
         style="fill:#20c997;fill-opacity:0.993958;stroke:#44d1a7;stroke-width:0.5;stroke-linecap:round;stroke-linejoin:miter;stroke-miterlimit:4;stroke-dasharray:none;stroke-opacity:1"
         d="m -35.71875,138.90625 v -2.64584"
         id="path46792" />
      <path
         style="fill:#20c997;fill-opacity:0.993958;stroke:#44d1a7;stroke-width:0.5;stroke-linecap:round;stroke-linejoin:miter;stroke-miterlimit:4;stroke-dasharray:none;stroke-opacity:1"
         d="m -30.427083,140.22916 v -2.64583"
         id="path46794" />
      <circle
         style="opacity:1;fill:#20c997;fill-opacity:0.993958;stroke:#44d1a7;stroke-width:0.499999;stroke-linecap:round;stroke-linejoin:round;stroke-miterlimit:4;stroke-dasharray:none;stroke-opacity:1;paint-order:markers fill stroke"
         id="path169801"
         cx="-35.71875"
         cy="135.99583"
         r="0.52916664" />
      <ellipse
         style="opacity:1;fill:#20c997;fill-opacity:0.993958;stroke:#44d1a7;stroke-width:0.550909;stroke-linecap:round;stroke-linejoin:round;stroke-miterlimit:4;stroke-dasharray:none;stroke-opacity:1;paint-order:markers fill stroke"
         id="path169803"
         cx="-30.427084"
         cy="137.31631"
         rx="0.50371152"
         ry="0.50615799" />
    </g>
  </g>
  <rect
     style="fill:none;fill-opacity:1;stroke:none;stroke-width:0.264999;stroke-linecap:round;stroke-linejoin:round;stroke-miterlimit:4;stroke-dasharray:none;stroke-opacity:1;paint-order:markers fill stroke"
     id="rect52624-5"
     width="22.199183"
     height="16.363026"
     x="59.531258"
     y="133.09767" />
</svg>
