<?xml version="1.0" encoding="UTF-8" standalone="no"?>
<!-- Created with Inkscape (http://www.inkscape.org/) -->

<svg
   width="81.419083mm"
   height="71.408607mm"
   viewBox="0 0 81.419084 71.408605"
   version="1.1"
   id="svg5"
   inkscape:version="1.1.2 (0a00cf5339, 2022-02-04)"
   sodipodi:docname="ndp5-after.svg"
   xmlns:inkscape="http://www.inkscape.org/namespaces/inkscape"
   xmlns:sodipodi="http://sodipodi.sourceforge.net/DTD/sodipodi-0.dtd"
   xmlns:xlink="http://www.w3.org/1999/xlink"
   xmlns="http://www.w3.org/2000/svg"
   xmlns:svg="http://www.w3.org/2000/svg">
  <sodipodi:namedview
     id="namedview7"
     pagecolor="#ffffff"
     bordercolor="#666666"
     borderopacity="1.0"
     inkscape:pageshadow="2"
     inkscape:pageopacity="0.0"
     inkscape:pagecheckerboard="0"
     inkscape:document-units="mm"
     showgrid="true"
     inkscape:zoom="1.2055089"
     inkscape:cx="356.69583"
     inkscape:cy="35.254821"
     inkscape:window-width="1920"
     inkscape:window-height="954"
     inkscape:window-x="0"
     inkscape:window-y="0"
     inkscape:window-maximized="1"
     inkscape:current-layer="svg5"
     inkscape:lockguides="false"
     showguides="false">
    <inkscape:grid
       type="xygrid"
       id="grid46749"
       originx="24.974432"
       originy="-172.58539" />
  </sodipodi:namedview>
  <defs
     id="defs2">
    <inkscape:perspective
       sodipodi:type="inkscape:persp3d"
       inkscape:vp_x="0 : 42.503583 : 1"
       inkscape:vp_y="0 : 999.99991 : 0"
       inkscape:vp_z="66.91692 : 42.503583 : 1"
       inkscape:persp3d-origin="33.458461 : 32.868573 : 1"
       id="perspective46053" />
  </defs>
  <g
     inkscape:groupmode="layer"
     id="layer5"
     inkscape:label="links"
     transform="translate(24.97443,-172.58541)" />
  <g
     inkscape:label="Layer 1"
     inkscape:groupmode="layer"
     id="layer1"
     style="display:none;opacity:0.398449"
     sodipodi:insensitive="true"
     transform="translate(-94.79941,-234.17022)">
    <image
       width="202.03284"
       height="269.22879"
       preserveAspectRatio="none"
       xlink:href="../../Pictures/hand-drawing-ndp.jpeg"
       id="image892"
       x="6.3588686"
       y="15.722986" />
  </g>
  <g
     inkscape:groupmode="layer"
     id="layer2"
     inkscape:label="Layer 2"
     transform="translate(-94.79941,-234.17022)" />
  <g
     inkscape:groupmode="layer"
     id="layer3"
     inkscape:label="Layer 3"
     transform="translate(24.97443,-172.58541)">
    <g
       id="g169900-8-9"
       transform="translate(59.53125,80.697923)">
      <path
         style="fill:none;stroke:#000000;stroke-width:0.265;stroke-linecap:round;stroke-linejoin:miter;stroke-miterlimit:4;stroke-dasharray:none;stroke-opacity:1"
         d="m 82.896416,204.87917 c 0.354217,0.0527 1.838678,-0.16269 1.838678,-0.16269"
         id="path29351-6-3-9"
         transform="translate(-119.77384,-61.58481)" />
      <path
         style="fill:none;stroke:#000000;stroke-width:0.264583px;stroke-linecap:round;stroke-linejoin:miter;stroke-opacity:1"
         d="m 86.707325,204.46448 2.297256,0.14489"
         id="path29353-0-8-3"
         transform="translate(-119.77384,-61.58481)" />
      <path
         style="fill:none;stroke:#000000;stroke-width:0.5;stroke-linecap:round;stroke-linejoin:miter;stroke-miterlimit:4;stroke-dasharray:none;stroke-opacity:1"
         d="m 87.978938,206.47191 -0.0177,-1.31734"
         id="path29355-6-0-6"
         transform="translate(-119.77384,-61.58481)" />
      <path
         style="fill:none;stroke:#000000;stroke-width:0.522147;stroke-linecap:round;stroke-linejoin:miter;stroke-miterlimit:4;stroke-dasharray:none;stroke-opacity:1"
         d="m 84.061634,206.36008 0.07442,-0.96546"
         id="path29357-2-4-0"
         transform="translate(-119.77384,-61.58481)" />
      <path
         style="fill:none;stroke:#000000;stroke-width:0.264583px;stroke-linecap:butt;stroke-linejoin:miter;stroke-opacity:1"
         d="m -34.395833,134.9375 c -1.823306,1.79387 -3.96875,5.29166 -3.96875,5.29166 l 7.9375,1.32292 3.96875,-5.29167 c 0,0 -4.888157,-1.74965 -7.9375,-1.32291 z"
         id="path46786-09-5"
         sodipodi:nodetypes="ccccc" />
      <path
         style="fill:none;stroke:#000000;stroke-width:0.264583px;stroke-linecap:butt;stroke-linejoin:miter;stroke-opacity:1"
         d="m -38.364583,140.22916 0.07343,5.27896 7.9375,1.5875 -0.07343,-5.54354"
         id="path46788-1-0"
         sodipodi:nodetypes="cccc" />
      <path
         style="fill:none;stroke:#000000;stroke-width:0.264583px;stroke-linecap:round;stroke-linejoin:miter;stroke-opacity:1"
         d="m -26.458333,136.26041 c 0,0 0.271752,3.48277 0,5.29167 -0.797508,2.22624 -3.96875,5.55625 -3.96875,5.55625"
         id="path46790-9-2"
         sodipodi:nodetypes="ccc" />
      <path
         style="fill:#20c997;fill-opacity:0.993958;stroke:#44d1a7;stroke-width:0.5;stroke-linecap:round;stroke-linejoin:miter;stroke-miterlimit:4;stroke-dasharray:none;stroke-opacity:1"
         d="m -35.71875,138.90625 v -2.64584"
         id="path46792-6-9" />
      <path
         style="fill:#20c997;fill-opacity:0.993958;stroke:#44d1a7;stroke-width:0.5;stroke-linecap:round;stroke-linejoin:miter;stroke-miterlimit:4;stroke-dasharray:none;stroke-opacity:1"
         d="m -30.427083,140.22916 v -2.64583"
         id="path46794-25-4" />
      <circle
         style="opacity:1;fill:#20c997;fill-opacity:0.993958;stroke:#44d1a7;stroke-width:0.499999;stroke-linecap:round;stroke-linejoin:round;stroke-miterlimit:4;stroke-dasharray:none;stroke-opacity:1;paint-order:markers fill stroke"
         id="path169801-4-3"
         cx="-35.71875"
         cy="135.99583"
         r="0.52916664" />
      <ellipse
         style="opacity:1;fill:#20c997;fill-opacity:0.993958;stroke:#44d1a7;stroke-width:0.550909;stroke-linecap:round;stroke-linejoin:round;stroke-miterlimit:4;stroke-dasharray:none;stroke-opacity:1;paint-order:markers fill stroke"
         id="path169803-4-5"
         cx="-30.427084"
         cy="137.31631"
         rx="0.50371152"
         ry="0.50615799" />
    </g>
    <path
       style="fill:#20c997;fill-opacity:0.5;stroke:#000000;stroke-width:0.264583px;stroke-linecap:butt;stroke-linejoin:miter;stroke-opacity:1"
       d="m -2.6458332,214.57709 -1.3229167,-3.96875 2.38125,1.85208 0.5291667,-3.175 1.3229166,2.38125 3.96875,-3.43958 -0.2645834,3.43958 5.55625,0.26458 -6.6145833,3.70417 z"
       id="path170738" />
  </g>
  <ellipse
     style="fill:none;stroke:#000000;stroke-width:0.5;stroke-linecap:round;stroke-linejoin:round;stroke-miterlimit:4;stroke-dasharray:none;stroke-opacity:1"
     id="path28812-9"
     cx="22.513992"
     cy="42.972149"
     rx="5.4507146"
     ry="1.5288541" />
  <circle
     id="path29051-0"
     style="fill:#000000;stroke:#000000;stroke-width:0.264583"
     cx="16.572449"
     cy="43.856243"
     r="0.0016899868" />
  <circle
     id="path29053-81"
     style="fill:#000000;stroke:#000000;stroke-width:0.264583"
     cx="16.572449"
     cy="43.856243"
     r="0.0016899868" />
  <circle
     id="path29158-3"
     style="fill:#05285b;stroke:#000000;stroke-width:0.264583"
     cx="16.637749"
     cy="43.925587"
     r="0.0016899868" />
  <circle
     id="path29160-11"
     style="fill:#05285b;stroke:#000000;stroke-width:0.264583"
     cx="16.637749"
     cy="43.925587"
     r="0.0016899868" />
  <path
     style="fill:none;stroke:#000000;stroke-width:0.5;stroke-linecap:round;stroke-linejoin:round;stroke-miterlimit:4;stroke-dasharray:none;stroke-opacity:1"
     d="m 16.542679,43.86175 0.140179,7.93499 c 0,0 3.267125,4.62432 13.246967,-0.22188 l -1.267512,-8.91925"
     id="path29236-0" />
  <ellipse
     style="fill:none;stroke:#000000;stroke-width:0.5;stroke-linecap:round;stroke-linejoin:round;stroke-miterlimit:4;stroke-dasharray:none;stroke-opacity:1"
     id="path28812-0-3"
     cx="69.682365"
     cy="61.200642"
     rx="5.4507146"
     ry="1.5288541" />
  <path
     style="fill:none;stroke:#000000;stroke-width:0.5;stroke-linecap:round;stroke-linejoin:round;stroke-miterlimit:4;stroke-dasharray:none;stroke-opacity:1"
     d="m 63.815439,62.26325 1.10053,6.55651 c 0,0 1.54094,4.68539 11.52078,-0.16081 l -0.60604,-7.77486"
     id="path29236-23-4"
     sodipodi:nodetypes="cccc" />
  <path
     style="fill:none;stroke:#000000;stroke-width:0.264583px;stroke-linecap:round;stroke-linejoin:miter;stroke-opacity:1"
     d="m 17.856216,48.33908 c 0.460795,0 2.409266,-0.6946 2.409266,-0.6946"
     id="path29351-0" />
  <path
     style="fill:none;stroke:#000000;stroke-width:0.264583px;stroke-linecap:round;stroke-linejoin:miter;stroke-opacity:1"
     d="m 25.215408,46.62048 2.209554,-0.64517"
     id="path29353-3" />
  <path
     style="fill:none;stroke:#000000;stroke-width:0.5;stroke-linecap:round;stroke-linejoin:miter;stroke-miterlimit:4;stroke-dasharray:none;stroke-opacity:1"
     d="m 26.235345,47.82544 -0.0177,-1.31734"
     id="path29355-9" />
  <path
     style="fill:none;stroke:#000000;stroke-width:0.522147;stroke-linecap:round;stroke-linejoin:miter;stroke-miterlimit:4;stroke-dasharray:none;stroke-opacity:1"
     d="m 19.932934,49.1735 0.07442,-0.96545"
     id="path29357-19" />
  <ellipse
     style="fill:none;stroke:#000000;stroke-width:0.5;stroke-linecap:round;stroke-linejoin:round;stroke-miterlimit:4;stroke-dasharray:none;stroke-opacity:1"
     id="path28812-5-6"
     cx="27.769264"
     cy="10.197155"
     rx="5.4507146"
     ry="1.5288541" />
  <circle
     id="path29051-6-93"
     style="fill:#000000;stroke:#000000;stroke-width:0.264583"
     cx="22.172073"
     cy="9.8685493"
     r="0.0016899868" />
  <circle
     id="path29053-2-3"
     style="fill:#000000;stroke:#000000;stroke-width:0.264583"
     cx="22.172073"
     cy="9.8685493"
     r="0.0016899868" />
  <circle
     id="path29158-9-8"
     style="fill:#05285b;stroke:#000000;stroke-width:0.264583"
     cx="22.237373"
     cy="9.9379158"
     r="0.0016899868" />
  <circle
     id="path29160-1-0"
     style="fill:#05285b;stroke:#000000;stroke-width:0.264583"
     cx="22.237373"
     cy="9.9379158"
     r="0.0016899868" />
  <path
     style="fill:none;stroke:#000000;stroke-width:0.5;stroke-linecap:round;stroke-linejoin:round;stroke-miterlimit:4;stroke-dasharray:none;stroke-opacity:1"
     d="m 22.480092,10.545434 0.894443,7.09523 c 0,0 1.170868,5.249036 11.150712,0.40283 l -0.97771,-7.16551"
     id="path29236-2-5"
     sodipodi:nodetypes="cccc" />
  <ellipse
     style="fill:none;stroke:#000000;stroke-width:0.5;stroke-linecap:round;stroke-linejoin:round;stroke-miterlimit:4;stroke-dasharray:none;stroke-opacity:1"
     id="path28812-5-9-6"
     cx="60.687569"
     cy="22.604877"
     rx="5.4507146"
     ry="1.5288541" />
  <path
     style="fill:none;stroke:#000000;stroke-width:0.5;stroke-linecap:round;stroke-linejoin:round;stroke-miterlimit:4;stroke-dasharray:none;stroke-opacity:1"
     d="m 55.398407,22.95316 v 7.9375 c 0,0 5.456372,2.6544 11.052242,-0.85233 l 0.0152,-6.75262"
     id="path29236-2-2-6"
     sodipodi:nodetypes="cccc" />
  <path
     style="fill:none;stroke:#000000;stroke-width:0.5;stroke-linecap:round;stroke-linejoin:miter;stroke-miterlimit:4;stroke-dasharray:none;stroke-opacity:1"
     d="m 26.022914,17.112244 c 0.05022,-0.16752 1.453583,-2.50742 1.453583,-2.50742 l -2.333013,-1.0512"
     id="path30297-4" />
  <path
     style="fill:none;stroke:#000000;stroke-width:0.5;stroke-linecap:round;stroke-linejoin:miter;stroke-miterlimit:4;stroke-dasharray:none;stroke-opacity:1"
     d="m 25.255995,15.450164 1.658541,-0.13539"
     id="path30299-00" />
  <path
     style="fill:none;stroke:#000000;stroke-width:0.5;stroke-linecap:round;stroke-linejoin:miter;stroke-miterlimit:4;stroke-dasharray:none;stroke-opacity:1"
     d="m 31.394947,12.152424 c 0,0 -1.984335,2.53246 -1.690012,2.64753 0.294322,0.11507 2.848422,1.04695 2.848422,1.04695"
     id="path30301-46" />
  <path
     style="fill:none;stroke:#000000;stroke-width:0.5;stroke-linecap:round;stroke-linejoin:miter;stroke-miterlimit:4;stroke-dasharray:none;stroke-opacity:1"
     d="m 30.636947,14.437904 c 0.67185,-0.0654 1.49253,-0.54885 1.49253,-0.54885"
     id="path30303-2" />
  <path
     style="fill:none;stroke:#000000;stroke-width:0.264583px;stroke-linecap:butt;stroke-linejoin:miter;stroke-opacity:1"
     d="m 22.834073,13.204024 c 0,0 -2.798331,0.0564 -3.241815,-1.59403"
     id="path30469-6" />
  <path
     style="fill:none;stroke:#000000;stroke-width:0.554;stroke-linecap:butt;stroke-linejoin:miter;stroke-miterlimit:4;stroke-dasharray:none;stroke-opacity:1"
     d="m 19.592258,11.609994 c -0.230086,-0.26331 -1.550352,-5.7101701 -1.550352,-5.7101701 0,0 -2.064503,-1.93344 -0.473976,-4.83874 1.590529,-2.9053 3.321909,3.14118 2.457995,3.3387 -0.863916,0.19751 -2.202595,0.60817 -1.951141,-1.30813 0.251454,-1.9163 1.652474,0.17875 1.575406,0.58688"
     id="path30473-7" />
  <path
     style="fill:none;stroke:#000000;stroke-width:0.5;stroke-linecap:round;stroke-linejoin:miter;stroke-miterlimit:4;stroke-dasharray:none;stroke-opacity:1"
     d="m 55.897257,26.54686 c 0,0 1.380202,0.46119 2.146182,-0.0947"
     id="path51195-7" />
  <path
     style="fill:none;stroke:#000000;stroke-width:0.5;stroke-linecap:round;stroke-linejoin:miter;stroke-miterlimit:4;stroke-dasharray:none;stroke-opacity:1"
     d="m 60.612969,26.4124 c 0,0 1.88482,-0.80148 2.5117,-0.45224"
     id="path51197-2" />
  <path
     style="fill:none;stroke:#000000;stroke-width:0.5;stroke-linecap:round;stroke-linejoin:miter;stroke-miterlimit:4;stroke-dasharray:none;stroke-opacity:1"
     d="m 61.844949,26.40975 c 10e-4,0.19624 -0.19909,1.49005 -0.19909,1.49005"
     id="path51199-8" />
  <path
     style="fill:none;stroke:#000000;stroke-width:0.5;stroke-linecap:round;stroke-linejoin:miter;stroke-miterlimit:4;stroke-dasharray:none;stroke-opacity:1"
     d="m 56.890939,27.14619 0.10555,1.06953"
     id="path51236-2" />
  <path
     style="fill:#20c997;fill-opacity:0.5;stroke:#000000;stroke-width:0.5;stroke-linecap:butt;stroke-linejoin:miter;stroke-miterlimit:4;stroke-dasharray:none;stroke-opacity:1"
     d="m 62.368209,21.733784 1.82697,-3.08963 4.24622,4.412456 c 0,0 1.99504,-3.149406 -0.8855,-6.306036 -2.88054,-3.15663 -7.4969,-1.78037 -7.4969,-1.78037 l 4.13618,3.67395"
     id="path51402-9"
     sodipodi:nodetypes="cccscc" />
  <path
     style="fill:none;stroke:#000000;stroke-width:0.5;stroke-linecap:butt;stroke-linejoin:miter;stroke-miterlimit:4;stroke-dasharray:none;stroke-opacity:1"
     d="m 65.976369,15.680804 c 0,0 -1.27862,1.14865 -3.27187,1.1797"
     id="path51404-96" />
  <path
     style="fill:none;stroke:#000000;stroke-width:0.5;stroke-linecap:butt;stroke-linejoin:miter;stroke-miterlimit:4;stroke-dasharray:none;stroke-opacity:1"
     d="m 64.488489,17.961194 c 0,0 2.04186,-0.80965 3.04017,-0.32804"
     id="path51406-0" />
  <path
     style="fill:none;stroke:#000000;stroke-width:0.5;stroke-linecap:butt;stroke-linejoin:miter;stroke-miterlimit:4;stroke-dasharray:none;stroke-opacity:1"
     d="m 67.736699,18.727444 c 0,0 -1.55596,1.30711 -1.71534,1.27576"
     id="path51408-2" />
  <path
     style="fill:none;stroke:#000000;stroke-width:0.5;stroke-linecap:butt;stroke-linejoin:miter;stroke-miterlimit:4;stroke-dasharray:none;stroke-opacity:1"
     d="m 68.986769,19.481404 c 0,0 -1.36731,1.50097 -1.60989,2.2852"
     id="path51410-7" />
  <path
     style="fill:none;stroke:#000000;stroke-width:0.264583px;stroke-linecap:butt;stroke-linejoin:miter;stroke-opacity:1"
     d="m 66.409349,27.83151 2.63222,1.05124"
     id="path52246-6" />
  <path
     style="fill:none;stroke:#000000;stroke-width:0.265;stroke-linecap:round;stroke-linejoin:round;stroke-miterlimit:4;stroke-dasharray:none;stroke-opacity:1"
     d="m 67.442809,24.97541 2.73249,-0.12381 -1.39835,2.64791 -1.35263,-2.43546"
     id="path52248-1" />
  <path
     style="fill:none;stroke:#000000;stroke-width:0.264583px;stroke-linecap:butt;stroke-linejoin:round;stroke-opacity:1"
     d="m 68.776949,27.49951 0.16205,2.69361 -0.42262,0.68209 1.0739,-0.023 -0.66156,-0.68152"
     id="path52250-3" />
  <ellipse
     style="fill:#000000;fill-opacity:1;stroke:none;stroke-width:0.815939;stroke-linecap:round;stroke-linejoin:round;stroke-miterlimit:4;stroke-dasharray:none;stroke-opacity:1;paint-order:markers fill stroke"
     id="path52274-2"
     cx="68.905418"
     cy="28.856564"
     rx="0.54848135"
     ry="0.54133064" />
  <ellipse
     style="fill:#000000;fill-opacity:1;stroke:none;stroke-width:0.815939;stroke-linecap:round;stroke-linejoin:round;stroke-miterlimit:4;stroke-dasharray:none;stroke-opacity:1;paint-order:markers fill stroke"
     id="path52274-5-1"
     cx="19.091087"
     cy="10.999142"
     rx="0.54848135"
     ry="0.54133064" />
  <rect
     style="fill:none;fill-opacity:1;stroke:none;stroke-width:0.264999;stroke-linecap:round;stroke-linejoin:round;stroke-miterlimit:4;stroke-dasharray:none;stroke-opacity:1;paint-order:markers fill stroke"
     id="rect52624-5"
     width="22.199183"
     height="16.363026"
     x="0"
     y="55.045582" />
  <path
     style="fill:none;stroke:#000000;stroke-width:0.264583px;stroke-linecap:butt;stroke-linejoin:miter;stroke-opacity:1"
     d="m 66.712509,67.02852 c 1.30377,-0.009 1.34993,0.002 2.28012,-0.47989"
     id="path54883-9" />
  <path
     style="fill:none;stroke:#000000;stroke-width:0.264583px;stroke-linecap:butt;stroke-linejoin:miter;stroke-opacity:1"
     d="m 71.223969,66.57437 c 0,0 2.33941,-0.29982 2.53983,-0.77336"
     id="path54885-9" />
  <path
     style="fill:none;stroke:#000000;stroke-width:0.264583px;stroke-linecap:butt;stroke-linejoin:miter;stroke-opacity:1"
     d="m 75.373189,67.07198 c 0,0 2.33418,-2.34265 3.40009,-2.18449"
     id="path54887-1" />
  <path
     style="fill:none;stroke:#000000;stroke-width:0.5;stroke-linecap:butt;stroke-linejoin:miter;stroke-miterlimit:4;stroke-dasharray:none;stroke-opacity:1"
     d="m 77.410109,65.52877 c 0,0 1.30593,-3.57241 1.67518,0.44524 -0.0973,3.25794 -1.3379,4.75496 -1.3379,4.75496"
     id="path54889-4"
     sodipodi:nodetypes="ccc" />
  <ellipse
     style="fill:#000000;fill-opacity:1;stroke:none;stroke-width:0.815939;stroke-linecap:round;stroke-linejoin:round;stroke-miterlimit:4;stroke-dasharray:none;stroke-opacity:1;paint-order:markers fill stroke"
     id="path52274-7-9"
     cx="78.872375"
     cy="65.03894"
     rx="0.54848135"
     ry="0.54133064" />
  <path
     style="fill:#44d2a8;fill-opacity:0.5;stroke:#000000;stroke-width:0.5;stroke-linecap:round;stroke-linejoin:miter;stroke-miterlimit:4;stroke-dasharray:none;stroke-opacity:1;paint-order:markers fill stroke"
     d="m 26.474793,6.4680439 c 0,0 4.43171,4.3593601 7.146704,4.8326501 0.95403,-4.7513501 1.94433,-10.2629001 1.94433,-10.2629001 z"
     id="path30589-8"
     sodipodi:nodetypes="cccc" />
  <path
     style="fill:none;stroke:#000000;stroke-width:0.5;stroke-linecap:round;stroke-linejoin:miter;stroke-miterlimit:4;stroke-dasharray:none;stroke-opacity:1;paint-order:markers fill stroke"
     d="m 32.835627,2.7265639 c 0,0 0.72331,3.28193 1.97351,2.79656"
     id="path30795-7" />
  <path
     style="fill:none;stroke:#000000;stroke-width:0.5;stroke-linecap:round;stroke-linejoin:miter;stroke-miterlimit:4;stroke-dasharray:none;stroke-opacity:1;paint-order:markers fill stroke"
     d="m 30.585212,4.0509039 c 0,0 2.367565,5.07161 3.544925,4.53739"
     id="path30797-0" />
  <path
     style="fill:none;stroke:#000000;stroke-width:0.5;stroke-linecap:round;stroke-linejoin:miter;stroke-miterlimit:4;stroke-dasharray:none;stroke-opacity:1;paint-order:markers fill stroke"
     d="m 28.265057,5.7288039 c 0,0 4.63554,5.6407201 5.28248,5.1491701"
     id="path30799-4" />
  <path
     id="path55414-2"
     style="fill:#44d2a8;fill-opacity:0.5;stroke:#000000;stroke-width:0.264999;stroke-linecap:round;stroke-linejoin:round;stroke-miterlimit:4;stroke-dasharray:none;stroke-opacity:1;paint-order:markers fill stroke"
     d="m 74.561589,53.75065 a 0.7664842,2.3783288 80.439195 0 0 -1.05058,0.0966 0.7664842,2.3783288 80.439195 0 0 -2.21795,1.15084 0.7664842,2.3783288 80.439195 0 0 0.0176,0.0563 l 0.96428,5.163 a 1.4229016,5.8091736 83.55799 0 0 -2.53576,1.49345 1.4229016,5.8091736 83.55799 0 0 5.93245,0.76171 1.4229016,5.8091736 83.55799 0 0 5.61258,-2.06551 1.4229016,5.8091736 83.55799 0 0 -3.33261,-0.90434 l -1.94769,-5.18521 -0.0269,0.004 a 0.7664842,2.3783288 80.439195 0 0 0.007,-0.11369 0.7664842,2.3783288 80.439195 0 0 -1.42213,-0.45734 z" />
</svg>
