<?xml version="1.0" encoding="UTF-8" standalone="no"?>
<!-- Created with Inkscape (http://www.inkscape.org/) -->

<svg
   width="37.026974mm"
   height="39.097466mm"
   viewBox="0 0 37.026973 39.097465"
   version="1.1"
   id="svg5"
   inkscape:version="1.1.2 (0a00cf5339, 2022-02-04)"
   sodipodi:docname="neutron.svg"
   xmlns:inkscape="http://www.inkscape.org/namespaces/inkscape"
   xmlns:sodipodi="http://sodipodi.sourceforge.net/DTD/sodipodi-0.dtd"
   xmlns="http://www.w3.org/2000/svg"
   xmlns:svg="http://www.w3.org/2000/svg">
  <sodipodi:namedview
     id="namedview7"
     pagecolor="#ffffff"
     bordercolor="#666666"
     borderopacity="1.0"
     inkscape:pageshadow="2"
     inkscape:pageopacity="0.0"
     inkscape:pagecheckerboard="0"
     inkscape:document-units="mm"
     showgrid="false"
     inkscape:snap-bbox="true"
     inkscape:zoom="1.3932941"
     inkscape:cx="-76.796423"
     inkscape:cy="145.33903"
     inkscape:window-width="1920"
     inkscape:window-height="954"
     inkscape:window-x="0"
     inkscape:window-y="0"
     inkscape:window-maximized="1"
     inkscape:current-layer="layer3" />
  <defs
     id="defs2">
    <rect
       x="95.227341"
       y="109.82012"
       width="66.681007"
       height="58.242146"
       id="rect7697" />
  </defs>
  <g
     inkscape:groupmode="layer"
     id="layer2"
     inkscape:label="outline"
     style="display:inline"
     transform="translate(-85.608479,82.551064)">
    <g
       id="g17456"
       style="fill:#b4df9f;fill-opacity:1">
      <path
         style="opacity:1;fill:#b4df9f;fill-opacity:1;stroke:#000000;stroke-width:0.264583px;stroke-linecap:butt;stroke-linejoin:miter;stroke-opacity:1"
         d="m 110.15996,-58.674308 c 2.5716,-1.803964 5.17111,-3.737448 6.96792,-6.356137 0.71538,-1.021937 1.17489,-2.646758 0.0355,-3.558134 -1.5818,-1.201309 -3.68664,-1.258863 -5.5912,-1.381971 -0.76418,-0.216537 -2.85068,0.534874 -1.87055,-0.802058 1.1899,-3.017083 2.4301,-6.089863 2.75409,-9.342625 0.16333,-1.012641 -0.24827,-2.639853 -1.59764,-2.243162 -2.0022,0.60354 -3.31662,1.829788 -4.86572,3.162086 -1.52458,1.395723 -2.96927,2.876237 -4.49745,4.533459 -1.1215,0.888865 -3.699385,1.019209 -5.224249,-0.04276 -3.083635,-3.860838 -5.240674,-6.851002 -7.593994,-3.504428 -2.353322,3.346577 -2.585503,6.767703 4.269474,11.871224 -3.179609,3.758561 -15.032144,9.796452 0.993358,9.921859 0,0 -10.615366,21.743843 9.723721,3.908296 1.48246,-1.502455 30.00733,10.053171 6.49674,-6.16565"
         id="path13810"
         sodipodi:nodetypes="ccccccccccscccc" />
    </g>
  </g>
  <g
     inkscape:groupmode="layer"
     id="layer3"
     inkscape:label="inner"
     style="display:inline"
     transform="translate(-24.480702,144.12391)">
    <path
       style="fill:none;stroke:#000000;stroke-width:0.965;stroke-linecap:butt;stroke-linejoin:miter;stroke-miterlimit:4;stroke-dasharray:none;stroke-opacity:1"
       d="m 35.72747,-128.69018 4.891723,0.92019"
       id="path13813" />
    <path
       style="fill:none;stroke:#000000;stroke-width:0.965;stroke-linecap:butt;stroke-linejoin:miter;stroke-miterlimit:4;stroke-dasharray:none;stroke-opacity:1"
       d="m 43.229543,-129.10633 c 1.603004,-0.51442 5.008549,-2.44604 5.008549,-2.44604"
       id="path13815" />
    <path
       style="fill:none;stroke:#000000;stroke-width:0.243875px;stroke-linecap:butt;stroke-linejoin:miter;stroke-opacity:1"
       d="m 34.602484,-118.8741 c 0,0 -1.044271,5.21699 5.499922,0.31785 6.544191,-4.89914 10.072158,-0.0634 9.7331,0.0716"
       id="path13817" />
    <path
       style="fill:#ffffff;fill-opacity:1;stroke:#000000;stroke-width:0.5;stroke-miterlimit:4;stroke-dasharray:none;stroke-opacity:1"
       id="path13843"
       sodipodi:type="arc"
       sodipodi:cx="33.399738"
       sodipodi:cy="-114.41151"
       sodipodi:rx="0.98064309"
       sodipodi:ry="1.0051218"
       sodipodi:start="0"
       sodipodi:end="6.2022718"
       sodipodi:open="true"
       sodipodi:arc-type="arc"
       d="m 34.380381,-114.41151 a 0.98064309,1.0051218 0 0 1 -0.960807,1.00492 0.98064309,1.0051218 0 0 1 -0.999676,-0.96426 0.98064309,1.0051218 0 0 1 0.920366,-1.04393 0.98064309,1.0051218 0 0 1 1.036909,0.92203" />
    <path
       style="opacity:1;fill:#ffffff;fill-opacity:1;stroke:#000000;stroke-width:0.5;stroke-miterlimit:4;stroke-dasharray:none;stroke-opacity:1"
       id="path13845"
       sodipodi:type="arc"
       sodipodi:cx="50.735321"
       sodipodi:cy="-117.64106"
       sodipodi:rx="1.0028973"
       sodipodi:ry="0.93853909"
       sodipodi:start="0"
       sodipodi:end="6.2022718"
       sodipodi:open="true"
       sodipodi:arc-type="arc"
       d="m 51.738218,-117.64106 a 1.0028973,0.93853909 0 0 1 -0.982611,0.93835 1.0028973,0.93853909 0 0 1 -1.022363,-0.90039 1.0028973,0.93853909 0 0 1 0.941253,-0.97477 1.0028973,0.93853909 0 0 1 1.06044,0.86095" />
    <path
       style="opacity:1;fill:#000000;fill-opacity:1;stroke:none;stroke-width:0.5;stroke-miterlimit:4;stroke-dasharray:none;stroke-opacity:1"
       id="path15761"
       sodipodi:type="arc"
       sodipodi:cx="38.733463"
       sodipodi:cy="-126.29203"
       sodipodi:rx="0.49808532"
       sodipodi:ry="1.4024756"
       sodipodi:start="0"
       sodipodi:end="6.2022718"
       sodipodi:open="true"
       sodipodi:arc-type="arc"
       d="m 39.231549,-126.29203 a 0.49808532,1.4024756 0 0 1 -0.488011,1.40219 0.49808532,1.4024756 0 0 1 -0.507752,-1.34547 0.49808532,1.4024756 0 0 1 0.467469,-1.45661 0.49808532,1.4024756 0 0 1 0.526664,1.28653" />
    <path
       style="opacity:1;fill:#000000;fill-opacity:1;stroke:none;stroke-width:0.5;stroke-miterlimit:4;stroke-dasharray:none;stroke-opacity:1"
       id="path15761-3"
       sodipodi:type="arc"
       sodipodi:cx="45.178234"
       sodipodi:cy="-128.47673"
       sodipodi:rx="0.49808532"
       sodipodi:ry="1.4024756"
       sodipodi:start="0"
       sodipodi:end="6.2022718"
       sodipodi:open="true"
       sodipodi:arc-type="arc"
       d="m 45.676319,-128.47673 a 0.49808532,1.4024756 0 0 1 -0.48801,1.40219 0.49808532,1.4024756 0 0 1 -0.507753,-1.34547 0.49808532,1.4024756 0 0 1 0.46747,-1.45661 0.49808532,1.4024756 0 0 1 0.526664,1.28653" />
    <path
       style="display:inline;opacity:1;fill:none;stroke:#000000;stroke-width:0.33234;stroke-linecap:butt;stroke-linejoin:miter;stroke-miterlimit:4;stroke-dasharray:none;stroke-opacity:0.9878"
       d="m 39.186403,-121.17949 c 0,0 1.724728,0.91306 3.033669,-1.33041 0,0 1.285299,3.12317 3.034977,-1.11933"
       id="path15939" />
    <path
       style="fill:none;fill-opacity:1;stroke:#000000;stroke-width:0.264583px;stroke-linecap:butt;stroke-linejoin:miter;stroke-opacity:1"
       d="m 39.370452,-113.48008 0.101759,5.59142 c 0,0 -3.885145,2.92212 -0.710994,2.71965 3.174153,-0.20246 1.135332,-2.68897 1.135332,-2.68897"
       id="path17349" />
    <path
       style="fill:none;fill-opacity:1;stroke:#000000;stroke-width:0.264583px;stroke-linecap:butt;stroke-linejoin:miter;stroke-opacity:1"
       d="m 46.730038,-116.28785 0.435092,7.42017 c 0,0 -1.475222,2.80803 1.20955,2.64255 2.684772,-0.16549 -0.826386,-2.66275 -0.826386,-2.66275"
       id="path17351" />
    <path
       style="fill:none;stroke:#000000;stroke-width:0.264583px;stroke-linecap:butt;stroke-linejoin:miter;stroke-opacity:1"
       d="m 49.032183,-120.24715 c 0,0 2.099625,2.19384 -1.223214,1.85521 -3.322838,-0.33863 -14.87593,-0.4718 -13.431797,3.8992"
       id="path17573" />
    <g
       id="g40043"
       transform="translate(2.2605986,-30.905109)">
      <path
         style="fill:none;stroke:#000000;stroke-width:0.264583px;stroke-linecap:butt;stroke-linejoin:miter;stroke-opacity:1"
         d="m 51.998458,-107.79707 c 0.330861,-0.0375 0.645226,-0.17003 0.97582,-0.20752 0.04914,-0.006 0.09891,0 0.148357,0 0.01095,0 -0.02191,0 -0.03287,0"
         id="path24312" />
      <g
         id="g40029">
        <g
           id="g40017">
          <path
             style="fill:none;stroke:#000000;stroke-width:0.264583px;stroke-linecap:butt;stroke-linejoin:miter;stroke-opacity:1"
             d="m 49.727891,-110.87623 c 0.229543,0.32587 0.263195,0.70174 0.263195,1.08876 0,0.38263 -0.005,0.76805 -0.170472,1.12297 -0.01594,0.0342 -0.03993,0.0643 -0.05587,0.0985 -0.01615,0.0347 -0.02399,0.0729 -0.0401,0.10756 -0.0083,0.0179 -0.232672,0.34721 -0.266997,0.36496 -0.01584,0.008 -0.03428,-0.001 -0.04516,-0.0119"
             id="path24304" />
          <g
             id="g40006">
            <path
               style="fill:none;stroke:#000000;stroke-width:0.264583px;stroke-linecap:butt;stroke-linejoin:miter;stroke-opacity:1"
               d="m 49.727891,-110.87623 c 0.04601,0.0522 0.09423,0.1026 0.138018,0.1567 0.115163,0.14227 0.196604,0.31357 0.286145,0.47206 0.132142,0.23389 0.281672,0.46265 0.401957,0.70289 0.07993,0.15963 0.145837,0.32853 0.217204,0.49222 0.0525,0.1204 0.09821,0.24216 0.139642,0.36644 0.02803,0.0841 -0.003,0.0177 0.02374,0.0712 0.0055,0.011 0.01187,0.0471 0.01187,0.0349 0,-0.0416 0.05722,-0.14839 0.07038,-0.19843 0.04899,-0.18637 0.102792,-0.37468 0.163426,-0.55783 0.03303,-0.0998 0.05256,-0.0884 0.07497,-0.19921 0.0047,-0.0233 -0.0021,-0.0476 0,-0.0712 0.0097,-0.10722 0.02691,-0.2151 0.03584,-0.32301 0.0089,-0.10701 0.02856,-0.21313 0.0369,-0.31984 0.02455,-0.31398 -0.01386,-0.50206 -0.118686,-0.79033 -0.01456,-0.0401 -0.02633,-0.0817 -0.04747,-0.11869 -0.02226,-0.039 -0.106818,-0.1345 -0.106818,-0.17789"
               id="path24306" />
            <path
               style="fill:none;stroke:#000000;stroke-width:0.264583px;stroke-linecap:butt;stroke-linejoin:miter;stroke-opacity:1"
               d="m 52.019831,-109.1952 c 0.149471,0.0677 0.295317,0.0571 0.446185,0.003 0.08021,-0.0285 0.11579,-0.0273 0.162034,-0.0917 0.01288,-0.018 0.01445,-0.0505 0.01188,-0.0712 -0.01291,-0.10321 -0.07985,-0.15341 -0.17803,-0.17803 -0.124629,-0.0312 -0.187523,0.0606 -0.261062,0.14279 -0.03397,0.038 -0.160414,0.14931 -0.180996,0.19463 -0.01119,0.0246 -0.004,0.0543 -0.01116,0.0804 -0.0047,0.0171 -0.01752,0.0309 -0.02373,0.0475 -0.0176,0.0469 -0.04182,0.13903 -0.04747,0.1899 -0.01648,0.14835 0.08785,0.25663 0.202787,0.33325 0.04775,0.0318 0.04716,0.0461 0.106817,0.0593 0.113467,0.0252 0.236027,-0.0314 0.335659,-0.0773 0.0254,-0.0117 0.04884,-0.0278 0.0751,-0.0374 0.105527,-0.0387 0.05971,0.0269 0.118362,-0.0904"
               id="path24308" />
            <path
               style="fill:none;stroke:#000000;stroke-width:0.264583px;stroke-linecap:butt;stroke-linejoin:miter;stroke-opacity:1"
               d="m 53.118092,-109.40833 c -0.0055,0.24873 -0.04464,0.49506 -0.04464,0.74434 0,0.036 -0.0093,0.13449 0.0356,0.1644 0.0071,0.005 0.02596,-0.002 0.03547,0 0.01209,0.003 0.02312,0.0133 0.03547,0.0117 0.13108,-0.0167 0.35288,-0.31551 0.397553,-0.42764 0.01492,-0.0375 0.01392,-0.0796 0.02373,-0.11868 0.07045,-0.28089 0.0028,-0.0346 0.07501,-0.21443 0.01696,-0.0422 0.03461,-0.0891 0.03561,-0.0724 5.3e-4,0.008 -0.009,0.0135 -0.01066,0.0213 -0.01712,0.0793 -0.02931,0.15969 -0.03839,0.2403 -0.0066,0.0585 -0.01151,0.1959 0,0.2535 0.0042,0.0209 0.01699,0.0391 0.02373,0.0594 0.06299,0.18896 0.183584,0.41701 0.349057,0.48832"
               id="path24310" />
            <path
               style="fill:none;stroke:#000000;stroke-width:0.264583px;stroke-linecap:butt;stroke-linejoin:miter;stroke-opacity:1"
               d="m 52.629764,-108.1592 c 0.03619,0.2322 -0.0087,0.46353 -0.02125,0.69482 -0.0076,0.13993 0.0067,0.25238 0.03069,0.39519 0.01082,0.0644 0.0494,0.19684 0.122441,0.22606 0.131863,0.0527 0.503968,-0.17539 0.600337,-0.26069 0.02916,-0.0258 0.0433,-0.18976 0.02392,-0.18976"
               id="path24314" />
            <path
               style="fill:none;stroke:#000000;stroke-width:0.264583px;stroke-linecap:butt;stroke-linejoin:miter;stroke-opacity:1"
               d="m 53.628767,-108.08767 c 0.0313,0.0198 0.07056,0.0306 0.09388,0.0594 0.0574,0.0708 0.135943,0.32354 0.157446,0.40687 0.01725,0.0669 0.03617,0.1334 0.05021,0.20102 0.01402,0.0675 0.02445,0.13575 0.03389,0.20404 0.0016,0.0106 0.02684,0.5277 0.02684,0.21312 0,-0.0642 -0.0073,-0.12883 0,-0.19263 0.03549,-0.31051 0.10422,-0.49877 0.307891,-0.732 0.03482,-0.0399 0.164179,-0.19597 0.244604,-0.19597 0.01614,0 0.03128,0.008 0.04692,0.0118"
               id="path24316" />
            <path
               style="fill:none;stroke:#000000;stroke-width:0.264583px;stroke-linecap:butt;stroke-linejoin:miter;stroke-opacity:1"
               d="m 55.267192,-108.16152 c -0.09698,0.14076 -0.14454,0.32153 -0.177983,0.4887 -0.02659,0.13292 -0.0874,0.33007 -0.02027,0.46436 0.02716,0.0543 0.141512,0.058 0.184473,0.0607 0.180676,0.0116 0.365699,-0.0261 0.506687,-0.14493 0.06667,-0.0562 0.121103,-0.12562 0.184984,-0.18498 0.0787,-0.0731 0.211751,-0.17302 0.173947,-0.30534 -0.02426,-0.0849 -0.191608,-0.16006 -0.261109,-0.20176 -0.05022,-0.0301 -0.0883,-0.0866 -0.142978,-0.10715 -0.01889,-0.007 -0.03925,-0.01 -0.05934,-0.0119 -0.07787,-0.007 -0.168334,-0.008 -0.246089,0 -0.01035,0.001 -0.05416,0.0188 -0.07311,0.0125 -0.04285,-0.0141 -0.0042,-0.0115 -0.0043,-0.0117"
               id="path24318" />
            <path
               style="fill:none;stroke:#000000;stroke-width:0.264583px;stroke-linecap:butt;stroke-linejoin:miter;stroke-opacity:1"
               d="m 56.640705,-108.15818 c 0.02724,0.12452 0.02638,0.24951 0.02638,0.37618 0,0.13856 0,0.27712 0,0.41568 0,0.0703 0,0.14053 0,0.2108 0,0.0637 -0.0027,0.097 -0.008,0.0829 -0.02704,-0.0728 0,-0.15531 0,-0.23296 0,-0.22664 5.29e-4,-0.50991 0.152532,-0.69807 0.0299,-0.037 0.30476,-0.2389 0.321193,-0.21239 0.137107,0.22125 0.08625,0.7084 0.346091,0.83832 0.0786,0.0393 0.17099,-0.0119 0.2491,-0.0119"
               id="path24320" />
          </g>
        </g>
      </g>
    </g>
    <path
       style="fill:none;stroke:#000000;stroke-width:0.264583px;stroke-linecap:butt;stroke-linejoin:miter;stroke-opacity:1"
       d="m 53.286261,-136.36956 c 0.0232,0.44075 -0.02373,0.88113 -0.02373,1.31937 0,0.074 -0.02516,0.12169 -0.03598,0.0949 -0.106643,-0.26361 0.292836,-0.94751 0.400289,-1.21727 0.01212,-0.0304 0.04758,-0.18809 0.116369,-0.1899 0.09482,-0.002 0.148269,0.22067 0.162266,0.28364 0.01834,0.0825 0.04205,0.21108 0.04747,0.28995 0.01154,0.16765 -0.06784,0.53402 0.04747,0.67392 0.04885,0.0592 0.223264,0.0417 0.284753,0.0478 0.05665,0.006 0.134101,0.0253 0.189899,0.0475 0.01625,0.006 0.03896,0.0388 0.04701,0.0233 0.01122,-0.0216 -0.02731,-0.0454 -0.0231,-0.0694 0.01183,-0.0672 0.07047,-0.11701 0.100975,-0.17803"
       id="path40078" />
    <path
       style="fill:none;stroke:#000000;stroke-width:0.264583px;stroke-linecap:butt;stroke-linejoin:miter;stroke-opacity:1"
       d="m 54.599952,-135.24378 c 0.189238,0.11999 0.371173,0.0563 0.371173,-0.16922 0,-0.0694 0.015,-0.14905 -0.02373,-0.21363 -0.03198,-0.0533 -0.196257,-0.2607 -0.284289,-0.1899 -0.03508,0.0282 -0.06359,0.0637 -0.09541,0.0956 -0.223057,0.22327 -0.35007,0.53628 -0.310067,0.8563 0.03348,0.26787 0.374155,0.64507 0.668258,0.57155 0.06933,-0.0173 0.15258,-0.11211 0.213635,-0.14243 0.01087,-0.005 0.270137,-0.0963 0.297458,-0.14771 0.0051,-0.01 -0.01889,-0.0134 -0.02225,-0.0237 -0.01222,-0.0374 -0.0278,-0.0765 -0.02373,-0.11563 0.0061,-0.0593 0.03264,-0.11467 0.04896,-0.172"
       id="path40080" />
    <path
       style="fill:none;stroke:#000000;stroke-width:0.264583px;stroke-linecap:butt;stroke-linejoin:miter;stroke-opacity:1"
       d="m 55.205901,-135.58815 c 0.127606,0.0374 1.169707,0.0798 1.169707,-0.007"
       id="path40082" />
    <path
       style="fill:none;stroke:#000000;stroke-width:0.264583px;stroke-linecap:butt;stroke-linejoin:miter;stroke-opacity:1"
       d="m 55.854223,-135.9469 c 0,0.14199 0,0.28398 0,0.42597 0,0.1151 -0.01632,0.24168 0,0.35606 0.02659,0.18614 0.144814,0.35017 0.213635,0.52222 0.02146,0.0536 0.03468,0.16838 0.07121,0.20974 0.0123,0.0139 0.133776,0.0235 0.157631,0.0235 0.218154,0 0.285975,-0.009 0.331393,-0.23645 0.0062,-0.031 -0.01,-0.0649 0,-0.0949 0.01752,-0.0525 0.0472,0.006 0.0472,-0.0457"
       id="path40086" />
    <path
       style="fill:none;stroke:#000000;stroke-width:0.264583px;stroke-linecap:butt;stroke-linejoin:miter;stroke-opacity:1"
       d="m 55.375864,-133.99303 c 0.06325,0.23112 0.174614,0.44504 0.238577,0.6793 0.02278,0.0834 0.02816,0.18963 0.04747,0.18999 0.02082,3.9e-4 0.429966,-0.68701 0.470201,-0.7876 0.03619,-0.0905 0.0232,-0.25729 0.06351,-0.18841 0.04674,0.0799 0.03312,0.36771 0.04822,0.44813 0.04546,0.24225 0.100671,0.46678 0.178215,0.69941 0.0046,0.0139 0.02178,0.13562 0.07093,0.14243 0.01635,0.002 0.05974,-0.14499 0.09838,-0.25286 0.0701,-0.19571 0.130283,-0.40867 0.164584,-0.61448 0.0074,-0.0445 -0.02559,-0.20686 0.02347,-0.20686 0.0071,0 -0.01638,-0.005 -0.02143,0 -0.01056,0.0105 0,0.0299 0,0.0448"
       id="path40088" />
    <path
       style="fill:none;stroke:#000000;stroke-width:0.264583px;stroke-linecap:butt;stroke-linejoin:miter;stroke-opacity:1"
       d="m 57.461306,-133.86146 c -0.08581,0.19044 -0.214529,0.604 -0.112567,0.80883 0.02257,0.0454 0.04689,0.10266 0.09495,0.11869 0.04504,0.015 0.09495,0 0.142422,0 0.222102,0 0.621406,-0.0268 0.740304,-0.26371 0.04541,-0.0905 0.08491,-0.29395 0.07121,-0.40353 -0.02759,-0.2207 -0.154017,-0.44494 -0.356061,-0.54596 -0.06155,-0.0308 -0.215066,-0.047 -0.284845,-0.0237 -0.02706,0.009 -0.04499,0.0362 -0.07121,0.0475 -0.03325,0.0143 -0.267444,0.0735 -0.26111,0.14242 0.0038,0.0415 0.02461,0.0797 0.0369,0.11952 z"
       id="path40090" />
    <path
       style="fill:none;stroke:#000000;stroke-width:0.264583px;stroke-linecap:butt;stroke-linejoin:miter;stroke-opacity:1"
       d="m 58.731619,-134.12034 c 0.106738,0.14312 0.209333,0.2874 0.283641,0.45036 0.06272,0.13754 0.121124,0.34356 0.09523,0.49894 -0.01307,0.0785 -0.08307,0.29638 -0.114978,0.0731 -0.0317,-0.22195 -0.03154,-0.45803 0.004,-0.68003 0.0232,-0.14498 0.421217,-0.65434 0.596863,-0.47938"
       id="path40092" />
    <path
       style="fill:none;stroke:#000000;stroke-width:0.264583px;stroke-linecap:butt;stroke-linejoin:miter;stroke-opacity:1"
       d="m 59.998685,-135.01911 c 0.0037,0.19109 -0.0079,0.38249 0,0.57349 0.01114,0.26988 0.04066,0.2887 0.05619,0.54976 0.0078,0.13032 0,0.26111 0,0.39166 0,0.10355 0.0034,0.23041 0.02373,0.33232 0.0049,0.0245 0.0231,0.0462 0.02373,0.0712 0.0013,0.0513 -0.03721,0.0139 -0.03987,0.005 -0.07735,-0.25403 -0.0548,-0.54524 -0.0548,-0.80605 0,-0.11807 -0.02561,-0.23895 0,-0.3542 0.03078,-0.13851 0.194082,-0.47149 0.356057,-0.49848 0.108757,-0.0181 0.163328,0.0348 0.213636,0.11868 0.06647,0.11078 0.08986,0.15734 0.04747,0.28401 -0.02066,0.0618 -0.03454,0.13489 -0.07121,0.1899 -0.07044,0.10566 -0.212656,0.15325 -0.284845,0.26111 -0.01805,0.0269 5.29e-4,0.0583 -0.01418,0.088 -0.01643,0.0329 -0.0902,0.06 -0.09467,0.0947 -0.0029,0.0221 0.04335,0.0113 0.06324,0.0212 0.03308,0.0165 0.0654,0.0346 0.09921,0.0496 0.302655,0.13391 0.558335,0.35178 0.856671,0.50042 0.01154,0.006 0.234159,0.0739 0.197501,0.11081"
       id="path40094" />
  </g>
</svg>
