<?xml version="1.0" encoding="UTF-8" standalone="no"?>
<!-- Created with Inkscape (http://www.inkscape.org/) -->

<svg
   width="84.249184mm"
   height="77.853165mm"
   viewBox="0 0 84.249184 77.853164"
   version="1.1"
   id="svg26643"
   inkscape:version="1.1.2 (0a00cf5339, 2022-02-04)"
   sodipodi:docname="nova.svg"
   xmlns:inkscape="http://www.inkscape.org/namespaces/inkscape"
   xmlns:sodipodi="http://sodipodi.sourceforge.net/DTD/sodipodi-0.dtd"
   xmlns:xlink="http://www.w3.org/1999/xlink"
   xmlns="http://www.w3.org/2000/svg"
   xmlns:svg="http://www.w3.org/2000/svg">
  <sodipodi:namedview
     id="namedview26645"
     pagecolor="#ffffff"
     bordercolor="#666666"
     borderopacity="1.0"
     inkscape:pageshadow="2"
     inkscape:pageopacity="0.0"
     inkscape:pagecheckerboard="0"
     inkscape:document-units="mm"
     showgrid="false"
     inkscape:zoom="3.9408307"
     inkscape:cx="129.43596"
     inkscape:cy="217.6461"
     inkscape:window-width="1920"
     inkscape:window-height="954"
     inkscape:window-x="0"
     inkscape:window-y="0"
     inkscape:window-maximized="1"
     inkscape:current-layer="layer6"
     inkscape:rotation="1" />
  <defs
     id="defs26640" />
  <g
     inkscape:label="Layer 1"
     inkscape:groupmode="layer"
     id="layer1"
     style="display:none;opacity:0.427004"
     sodipodi:insensitive="true"
     transform="translate(181.63503,-254.51635)">
    <image
       width="480.48334"
       height="640.29169"
       preserveAspectRatio="none"
       xlink:href="../../Downloads/processed-CBF7B149-90F1-4904-913C-E318F46A3619-BC27C145-5856-48FB-868D-0A2566A6DF20.jpeg.jpeg"
       id="image26870"
       x="-215.93477"
       y="-240.00902" />
  </g>
  <g
     inkscape:groupmode="layer"
     id="layer6"
     inkscape:label="Low"
     style="display:inline"
     transform="translate(181.63503,-254.51635)">
    <g
       id="g34070">
      <path
         style="fill:#808080;fill-opacity:1;stroke:#000000;stroke-width:0.264583px;stroke-linecap:butt;stroke-linejoin:miter;stroke-opacity:1"
         d="m -181.38748,279.04217 4.36089,11.6772 6.88699,3.07449 15.44327,20.159 c 0,0 -1.74141,1.24103 -1.35563,1.24103 0.38579,0 7.77212,6.29428 6.72518,3.84789 -1.04695,-2.44637 -3.75507,-7.40207 -3.75507,-7.40207 l -1.07763,0.60635 -15.47842,-20.14064 c 0,0 -2.27669,-7.43461 -2.84029,-7.98613 -0.5636,-0.55155 -8.90929,-5.07712 -8.90929,-5.07712 z"
         id="path33073" />
      <path
         style="fill:#9fcadf;fill-opacity:1;stroke:#000000;stroke-width:0.264583px;stroke-linecap:butt;stroke-linejoin:miter;stroke-opacity:1"
         d="m -179.21594,281.34141 3.32101,7.80754 c 0,0 4.81487,2.21557 4.6958,1.89458 -0.11907,-0.32102 -1.43955,-4.22006 -1.8791,-4.65961 -0.43956,-0.43955 -6.13771,-5.04251 -6.13771,-5.04251 z"
         id="path33075" />
    </g>
    <path
       style="fill:#efefef;fill-opacity:1;stroke:#000000;stroke-width:0.7;stroke-linecap:butt;stroke-linejoin:miter;stroke-miterlimit:4;stroke-dasharray:none;stroke-opacity:1"
       d="m -150.91111,300.26962 c 0,0 -1.71938,15.17393 22.11994,14.5466 23.83932,-0.62733 18.91666,-14.3832 18.91666,-14.3832 l -0.58615,-17.77767 -40.76752,2.08341 z"
       id="path33496" />
    <path
       style="fill:none;stroke:#4095bf;stroke-width:1;stroke-linecap:butt;stroke-linejoin:miter;stroke-miterlimit:4;stroke-dasharray:none;stroke-opacity:0.41464"
       d="m -159.47746,328.15734 c 0,0 51.62176,-4.74855 57.00677,-9.17925"
       id="path36887" />
    <path
       style="fill:none;stroke:#4095bf;stroke-width:1;stroke-linecap:butt;stroke-linejoin:miter;stroke-miterlimit:4;stroke-dasharray:none;stroke-opacity:0.41464"
       d="m -147.17527,315.82994 c 0,0 5.90759,17.73318 39.45273,15.90801"
       id="path36889" />
    <path
       style="fill:#4095bf;fill-opacity:0.5;stroke:none;stroke-width:1;stroke-linecap:round;stroke-linejoin:round;stroke-miterlimit:4;stroke-dasharray:none;stroke-opacity:0.5"
       id="path36913"
       sodipodi:type="arc"
       sodipodi:cx="-149.61279"
       sodipodi:cy="323.36243"
       sodipodi:rx="2.2628238"
       sodipodi:ry="1.2358186"
       sodipodi:start="0"
       sodipodi:end="6.2472839"
       sodipodi:arc-type="slice"
       d="m -147.34997,323.36243 a 2.2628238,1.2358186 0 0 1 -2.24251,1.23577 2.2628238,1.2358186 0 0 1 -2.28277,-1.21359 2.2628238,1.2358186 0 0 1 2.20154,-1.25755 2.2628238,1.2358186 0 0 1 2.32228,1.19101 l -2.26136,0.0444 z" />
    <path
       style="fill:#4095bf;fill-opacity:0.5;stroke:none;stroke-width:1;stroke-linecap:round;stroke-linejoin:round;stroke-miterlimit:4;stroke-dasharray:none;stroke-opacity:0.5"
       id="path36915"
       sodipodi:type="arc"
       sodipodi:cx="-138.97629"
       sodipodi:cy="330.45132"
       sodipodi:rx="3.5798683"
       sodipodi:ry="1.4832048"
       sodipodi:start="0"
       sodipodi:end="6.2472839"
       sodipodi:arc-type="slice"
       d="m -135.39642,330.45132 a 3.5798683,1.4832048 0 0 1 -3.54774,1.48315 3.5798683,1.4832048 0 0 1 -3.61142,-1.45652 3.5798683,1.4832048 0 0 1 3.48291,-1.50929 3.5798683,1.4832048 0 0 1 3.67394,1.42943 l -3.57756,0.0532 z" />
    <path
       style="fill:#4095bf;fill-opacity:0.5;stroke:none;stroke-width:1;stroke-linecap:round;stroke-linejoin:round;stroke-miterlimit:4;stroke-dasharray:none;stroke-opacity:0.5"
       id="path36917"
       sodipodi:type="arc"
       sodipodi:cx="-134.58249"
       sodipodi:cy="322.21783"
       sodipodi:rx="2.1599007"
       sodipodi:ry="1.1694286"
       sodipodi:start="0"
       sodipodi:end="6.2472839"
       sodipodi:arc-type="slice"
       d="m -132.42259,322.21783 a 2.1599007,1.1694286 0 0 1 -2.14051,1.16939 2.1599007,1.1694286 0 0 1 -2.17894,-1.14839 2.1599007,1.1694286 0 0 1 2.1014,-1.19 2.1599007,1.1694286 0 0 1 2.21666,1.12703 l -2.15851,0.042 z" />
    <path
       style="fill:#4095bf;fill-opacity:0.5;stroke:none;stroke-width:1;stroke-linecap:round;stroke-linejoin:round;stroke-miterlimit:4;stroke-dasharray:none;stroke-opacity:0.5"
       id="path36919"
       sodipodi:type="arc"
       sodipodi:cx="-114.91306"
       sodipodi:cy="327.02426"
       sodipodi:rx="3.255336"
       sodipodi:ry="1.3908522"
       sodipodi:start="0"
       sodipodi:end="6.2472839"
       sodipodi:arc-type="slice"
       d="m -111.65773,327.02426 a 3.255336,1.3908522 0 0 1 -3.22612,1.3908 3.255336,1.3908522 0 0 1 -3.28402,-1.36583 3.255336,1.3908522 0 0 1 3.16716,-1.41532 3.255336,1.3908522 0 0 1 3.34089,1.34043 l -3.25324,0.0499 z" />
    <g
       id="g40625"
       transform="matrix(1.4909461,0,0,1.4909461,79.701137,-160.15364)">
      <path
         style="fill:none;stroke:#000000;stroke-width:0.264583px;stroke-linecap:butt;stroke-linejoin:miter;stroke-opacity:1"
         d="m -164.71626,325.78053 c -0.19194,-0.0188 -0.35699,0.10109 -0.47509,0.24386 -0.13845,0.16736 -0.11215,0.4437 -0.0727,0.6409 0.0339,0.16959 0.10731,0.40529 0.19498,0.55266 0.006,0.0416 0.0496,0.0524 0.0686,0.0827 0.009,0.015 0.006,0.0367 0.0177,0.05 0.0821,0.0951 0.32247,0.23699 0.44183,0.26133 0.0274,0.006 0.056,-0.004 0.0839,-0.002 0.19058,0.0157 0.39593,0.0291 0.58766,0.007 0.0935,-0.011 0.17734,-0.0502 0.26734,-0.0718 0.0271,-0.007 0.0582,0.01 0.0837,-0.002 0.0832,-0.0374 0.14599,-0.10951 0.22099,-0.16144"
         id="path38662" />
      <path
         style="fill:none;stroke:#000000;stroke-width:0.264583px;stroke-linecap:butt;stroke-linejoin:miter;stroke-opacity:1"
         d="m -162.97217,326.21428 c -0.0329,0.0398 -0.0734,0.0742 -0.0986,0.11924 -0.005,0.009 -0.0303,0.18508 -0.0303,0.18519 -0.032,0.23579 0.0357,0.3752 0.18093,0.55528 0.17041,0.21128 0.32416,0.36542 0.61203,0.36038 0.028,-5.3e-4 0.0569,0.006 0.0839,-0.002 0.24721,-0.0664 0.5067,-0.50186 0.56698,-0.72968 0.0385,-0.14536 0.0682,-0.38592 -0.006,-0.52842 -0.0658,-0.126 -0.21024,-0.18239 -0.33946,-0.2123 -0.15185,-0.0351 -0.29625,-0.0818 -0.45429,-0.0592 -0.10645,0.0152 -0.23238,0.11169 -0.333,0.15691 -0.0153,0.007 -0.163,0.081 -0.16636,0.0868 -0.0115,0.0199 0.003,0.0531 -0.0155,0.0672 -0.11785,0.0917 -0.11164,8e-4 -0.122,0.0693"
         id="path38664" />
      <path
         style="fill:none;stroke:#000000;stroke-width:0.264583px;stroke-linecap:butt;stroke-linejoin:miter;stroke-opacity:1"
         d="m -161.16961,325.97939 c -0.0374,0.1825 -0.001,0.37008 -0.007,0.55457 -0.003,0.0796 -0.0116,0.1588 -0.018,0.23815 -0.0119,0.14906 -0.0361,0.29295 -0.0334,0.44178 8e-5,0.005 -1.7e-4,-0.01 -2.5e-4,-0.0144 -4.8e-4,-0.0272 -0.004,-0.0545 -0.001,-0.0816 0.04,-0.40894 0.0175,-0.25756 0.13392,-0.6095 0.0203,-0.0612 0.0273,-0.12782 0.058,-0.1845 0.0399,-0.0737 0.10313,-0.13222 0.15091,-0.20107 0.11227,-0.16177 0.17043,-0.32935 0.38592,-0.33312 0.0167,-2.7e-4 0.0424,-0.0157 0.0501,-7.9e-4 0.005,0.01 -0.002,0.0225 5.8e-4,0.0332 0.0765,0.28461 -0.0104,0.60285 -0.005,0.89559 2.5e-4,0.0145 -0.0147,0.27011 0.036,0.2176 0.0113,-0.0117 -0.003,-0.0328 -8.5e-4,-0.049 0.0185,-0.14751 0.004,-0.0245 0.0477,-0.15192 0.091,-0.2663 0.16446,-0.76831 0.42339,-0.95012 0.0189,-0.0133 0.0451,-0.0103 0.0668,-0.018 0.0118,-0.004 0.0208,-0.0171 0.0333,-0.0174 0.072,-0.002 0.1247,0.1363 0.13689,0.18168 0.0684,0.25474 0.0763,0.5257 0.10059,0.78692 0.0132,0.14151 -0.0163,0.11747 0.0235,0.26982 0.006,0.0245 0.028,0.043 0.0351,0.0673 0.0264,0.0903 0.0106,0.21903 0.0833,0.067"
         id="path38666" />
      <path
         style="fill:none;stroke:#000000;stroke-width:0.264583px;stroke-linecap:butt;stroke-linejoin:miter;stroke-opacity:1"
         d="m -158.75291,325.855 c -0.0161,0.15916 -0.0784,0.30935 -0.10094,0.46702 -0.0519,0.36353 -0.0383,0.74718 -0.0319,1.11272 0.007,0.38022 0.0133,0.76044 0.02,1.14067 0.003,0.16649 0.006,0.33297 0.009,0.49946 9.8e-4,0.0559 0.009,0.1122 0.003,0.16782 -0.003,0.0247 -0.0269,0.0922 -0.0309,0.0677 -0.0146,-0.0891 0.0136,-0.26782 0.021,-0.33703"
         id="path38668" />
      <path
         style="fill:none;stroke:#000000;stroke-width:0.264583px;stroke-linecap:butt;stroke-linejoin:miter;stroke-opacity:1"
         d="m -158.75291,325.855 c 0.44189,0.32652 0.17782,0.1273 0.39841,0.29802 0.10429,0.0807 0.24718,0.14331 0.31135,0.26623 0.0883,0.16922 -0.0744,0.59673 -0.21106,0.72063 -0.0441,0.0399 -0.0841,0.0849 -0.13221,0.11983 -0.0851,0.0618 -0.19355,0.081 -0.28746,0.12476 -0.0741,0.0346 -0.0939,0.0601 -0.096,0.0519 -0.008,-0.0315 0.44209,-0.41305 0.46838,-0.4364"
         id="path38670" />
      <path
         style="fill:none;stroke:#000000;stroke-width:0.264583px;stroke-linecap:butt;stroke-linejoin:miter;stroke-opacity:1"
         d="m -157.42651,326.01252 c -0.0178,0.15939 -0.0541,0.31969 -0.0626,0.48031 -0.0101,0.19124 -0.008,0.41222 0.0459,0.59718 0.0317,0.1083 0.19283,0.27997 0.32239,0.19581 0.061,-0.0396 0.1094,-0.137 0.13508,-0.19529 0.10941,-0.24834 0.12048,-0.46904 0.14598,-0.73372 0.01,-0.0997 0.0135,-0.18907 0.0117,-0.28834 -3.9e-4,-0.0231 -0.002,-0.0923 -0.001,-0.0692 0.002,0.0899 0.003,0.17984 0.005,0.26976 0.001,0.0594 0.002,0.11874 0.003,0.17812 0.006,0.34648 0.0993,0.6926 0.33434,0.95725 0.044,0.0496 0.2429,0.0906 0.28513,0.0118 0.0231,-0.043 0.0381,-0.12716 0.0465,-0.17347"
         id="path38672" />
      <path
         style="fill:none;stroke:#000000;stroke-width:0.264583px;stroke-linecap:butt;stroke-linejoin:miter;stroke-opacity:1"
         d="m -156.22574,326.31361 c 0.46418,0.0467 0.93503,0.0203 1.40123,0.0121 0.0562,-0.001 0.11237,-0.002 0.16854,-0.003 0.008,-1.3e-4 0.0346,0.003 0.0415,-8e-4 0.0332,-0.0202 -0.002,-0.0156 0.032,-0.0162 0.0171,-2.7e-4 -0.0296,-0.0177 -0.0419,-0.0295"
         id="path38674" />
      <path
         style="fill:none;stroke:#000000;stroke-width:0.264583px;stroke-linecap:butt;stroke-linejoin:miter;stroke-opacity:1"
         d="m -155.57599,325.90301 c 0.0438,0.14835 0.0387,0.29343 0.0414,0.4446 0.004,0.20049 -0.0151,0.41466 0.0442,0.60921 0.0139,0.0457 0.0393,0.0875 0.0527,0.13338 0.005,0.0161 -0.005,0.0347 7.9e-4,0.0503 0.0207,0.0734 0.077,0.13041 0.10476,0.20054 0.0389,0.0984 0.0742,0.18295 0.13895,0.26616 0.0154,0.0197 0.0138,0.0528 0.0347,0.0665 0.0714,0.047 0.32566,-0.14182 0.34665,-0.20869 0.008,-0.0251 0.002,-0.0789 0.015,-0.10099 0.0978,-0.16971 0.002,0.0839 0.0986,-0.11923 0.01,-0.0207 0.008,-0.0455 0.0156,-0.0672 0.006,-0.0176 -0.0349,-0.0246 -0.0396,-0.0426 -0.0106,-0.0402 -0.0131,-0.0822 -0.0197,-0.12326"
         id="path38676" />
      <path
         style="fill:none;stroke:#000000;stroke-width:0.264583px;stroke-linecap:butt;stroke-linejoin:miter;stroke-opacity:1"
         d="m -153.98711,326.81573 c 0.14513,0.0603 0.29852,0.074 0.45449,0.0441 0.0211,-0.004 0.0369,-0.022 0.0547,-0.0341 0.0291,-0.0198 0.0574,-0.0409 0.0859,-0.0616 0.0595,-0.0434 0.16448,-0.10386 0.19529,-0.17765 0.0136,-0.0326 0.009,-0.0811 0.008,-0.1139 -0.002,-0.10005 -0.002,-0.16556 -0.0726,-0.24136 -0.0164,-0.0176 -0.0321,-0.0341 -0.0565,-0.0411 -0.0139,-0.004 -0.0289,-0.002 -0.0433,-0.004 -0.10315,-0.0121 -0.0643,-0.0133 -0.18757,-0.0151 -0.10753,-0.002 -0.10313,-5e-5 -0.19217,0.0238 -0.0406,0.0109 -0.10216,0.0207 -0.14328,0.0388 -0.0893,0.0394 -0.1774,0.12307 -0.22975,0.20449 -0.0375,0.0583 -0.074,0.1477 -0.0866,0.21724 -0.0105,0.0575 -0.006,0.11724 -0.008,0.17512 -0.003,0.11224 -0.008,0.21319 0.0226,0.32325 0.0366,0.12978 0.16083,0.31618 0.2879,0.37586 0.11903,0.0559 0.25043,0.0468 0.37792,0.0446 0.14885,-0.003 0.0835,10e-4 0.21443,-0.0102 0.13682,-0.012 0.24328,-0.0217 0.36959,-0.0837 0.0301,-0.0148 0.0596,-0.0308 0.0881,-0.0485 0.0116,-0.007 0.0213,-0.0173 0.033,-0.0245 0.0449,-0.0273 0.10332,-0.043 0.14085,-0.081 0.0149,-0.0151 0.001,-0.0425 0.004,-0.0636 0.004,-0.0293 0.0116,-0.0579 0.0173,-0.0868"
         id="path38678" />
    </g>
  </g>
  <g
     inkscape:groupmode="layer"
     id="layer5"
     inkscape:label="Middle"
     style="display:inline"
     transform="translate(181.63503,-254.51635)">
    <path
       style="fill:#9fcae0;fill-opacity:1;stroke:#000000;stroke-width:0.7;stroke-linecap:butt;stroke-linejoin:miter;stroke-miterlimit:4;stroke-dasharray:none;stroke-opacity:1"
       d="m -133.26516,265.42172 c -19.15137,-8.24725 -30.62751,23.62548 -21.39131,31.68398 14.24457,13.74509 27.58842,-17.07318 39.02843,-13.3559 4.23672,1.94127 6.69723,5.90354 6.91829,3.66704 -2.49282,-15.36596 -11.32577,-18.26287 -24.55541,-21.99512 z"
       id="path30409"
       sodipodi:nodetypes="ccccc" />
    <path
       style="fill:none;stroke:#000000;stroke-width:0.7;stroke-linecap:butt;stroke-linejoin:miter;stroke-miterlimit:4;stroke-dasharray:none;stroke-opacity:1"
       d="m -134.25775,299.14768 c 2.49437,-0.35669 9.73646,-4.64021 9.73646,-4.64021"
       id="path32021" />
    <path
       style="fill:none;stroke:#000000;stroke-width:0.7;stroke-linecap:butt;stroke-linejoin:miter;stroke-miterlimit:4;stroke-dasharray:none;stroke-opacity:1"
       d="m -150.51194,302.52823 c 1.67532,0 5.02414,-1.15501 5.02414,-1.15501"
       id="path32023" />
    <path
       style="fill:none;stroke:#000000;stroke-width:1;stroke-linecap:butt;stroke-linejoin:miter;stroke-miterlimit:4;stroke-dasharray:none;stroke-opacity:1"
       d="m -129.9425,298.29323 c 0.18725,0.75163 -0.0566,3.22265 -0.0566,3.22265"
       id="path32029" />
    <path
       style="fill:none;stroke:#000000;stroke-width:1;stroke-linecap:butt;stroke-linejoin:miter;stroke-miterlimit:4;stroke-dasharray:none;stroke-opacity:1"
       d="m -148.6331,303.14611 c 0.12982,0.43326 0.2085,2.3808 0.2085,2.3808"
       id="path32031" />
    <path
       style="fill:none;stroke:#000000;stroke-width:1.06926;stroke-linecap:butt;stroke-linejoin:miter;stroke-miterlimit:4;stroke-dasharray:none;stroke-opacity:1"
       d="m -138.82865,315.58143 c -1.28941,1.41661 -2.87317,4.91631 -2.87317,4.91631 l 1.10601,4.49804 c 0,0 -5.75014,2.08578 -4.38859,-1.7428 1.36152,-3.82854 3.96905,0.19905 3.96905,0.19905"
       id="path32033" />
    <g
       id="g36356"
       transform="matrix(1.9450948,0,0,1.3848432,121.42509,-122.24282)">
      <path
         style="fill:none;stroke:#000000;stroke-width:0.7;stroke-linecap:butt;stroke-linejoin:miter;stroke-miterlimit:4;stroke-dasharray:none;stroke-opacity:1"
         d="m -126.8667,315.90199 c 0.77498,0.6554 1.17861,4.71678 0.57619,5.56152"
         id="path32035" />
      <path
         style="fill:none;stroke:#000000;stroke-width:0.7;stroke-linecap:butt;stroke-linejoin:miter;stroke-miterlimit:4;stroke-dasharray:none;stroke-opacity:1"
         d="m -126.29051,321.46351 c 0,0 1.81669,3.85696 -1.19014,1.83701 -2.56522,-1.72327 0.83871,-1.08648 1.19014,-1.83701"
         id="path32037"
         sodipodi:nodetypes="csc" />
    </g>
    <g
       id="g36364"
       transform="matrix(1.2673131,0,0,1.1860243,32.005246,-56.173181)">
      <path
         style="fill:none;stroke:#000000;stroke-width:0.7;stroke-linecap:butt;stroke-linejoin:miter;stroke-miterlimit:4;stroke-dasharray:none;stroke-opacity:1"
         d="m -119.73947,302.37112 c 0,0 4.52794,0.38762 2.17991,2.66615 -2.34803,2.27854 -1.925,1.67691 -1.0278,2.82798"
         id="path32025" />
      <path
         style="fill:none;stroke:#000000;stroke-width:0.7;stroke-linecap:butt;stroke-linejoin:miter;stroke-miterlimit:4;stroke-dasharray:none;stroke-opacity:1"
         d="m -118.58736,307.86525 c 0,0 0.74915,3.02728 2.63573,2.83779 1.88658,-0.18947 0.88356,-4.425 -0.87609,-3.63141 -1.75964,0.79362 -1.75964,0.79362 -1.75964,0.79362 z"
         id="path32874" />
    </g>
    <g
       id="g36360"
       transform="matrix(1.0263263,0,0,1.031629,5.2694901,-10.302659)">
      <path
         style="fill:none;stroke:#000000;stroke-width:0.7;stroke-linecap:butt;stroke-linejoin:miter;stroke-miterlimit:4;stroke-dasharray:none;stroke-opacity:1"
         d="m -151.78548,303.23972 c 0,0 -6.30005,-0.65905 -6.49859,2.18832"
         id="path32027" />
      <path
         style="fill:none;stroke:#000000;stroke-width:0.7;stroke-linecap:butt;stroke-linejoin:miter;stroke-miterlimit:4;stroke-dasharray:none;stroke-opacity:1"
         d="m -158.28407,305.42804 -2.12641,-2.28481 c 0,0 -3.12616,1.47272 -2.41084,2.17479 0.71532,0.70208 2.65422,5.01904 3.59574,2.56453 0.94151,-2.45451 0.94151,-2.45451 0.94151,-2.45451 z"
         id="path32876" />
    </g>
  </g>
  <g
     inkscape:groupmode="layer"
     id="layer4"
     inkscape:label="Top"
     style="display:inline"
     transform="translate(181.63503,-254.51635)">
    <path
       style="fill:#808080;fill-opacity:1;stroke:#000000;stroke-width:0.7;stroke-linecap:butt;stroke-linejoin:miter;stroke-miterlimit:4;stroke-dasharray:none;stroke-opacity:1"
       d="m -125.75975,255.03891 -10.36908,23.94529 -16.13129,10.09126 c 0,0 -17.47133,-22.41941 26.50037,-34.03655 z"
       id="path26941" />
    <path
       id="path26976"
       style="fill:#9ecae0;fill-opacity:1;stroke:#000000;stroke-width:1.88976;stroke-linecap:butt;stroke-linejoin:miter;stroke-miterlimit:4;stroke-dasharray:none;stroke-opacity:1"
       d="m -566.41602,1024.7871 c -13.73181,18.8597 -13.92374,36.2258 -9.57226,53.0899 0,0 29.2586,-20.5775 51.28516,-29.5547 -11.38183,-23.9907 -41.7129,-23.5352 -41.7129,-23.5352 z"
       transform="scale(0.26458333)" />
    <path
       style="fill:#000000;fill-opacity:1;stroke:none;stroke-width:4.40315;stroke-linecap:round;stroke-linejoin:round;stroke-miterlimit:4;stroke-dasharray:none;stroke-opacity:0.9878"
       id="path27611"
       sodipodi:type="arc"
       sodipodi:cx="-147.22762"
       sodipodi:cy="274.8479"
       sodipodi:rx="0.61452496"
       sodipodi:ry="0.61452496"
       sodipodi:start="0"
       sodipodi:end="6.2472802"
       sodipodi:arc-type="slice"
       d="m -146.61309,274.8479 a 0.61452496,0.61452496 0 0 1 -0.60901,0.6145 0.61452496,0.61452496 0 0 1 -0.61994,-0.60347 0.61452496,0.61452496 0 0 1 0.59788,-0.62533 0.61452496,0.61452496 0 0 1 0.63067,0.59224 l -0.61413,0.0221 z" />
    <path
       style="fill:#000000;fill-opacity:1;stroke:none;stroke-width:4.40315;stroke-linecap:round;stroke-linejoin:round;stroke-miterlimit:4;stroke-dasharray:none;stroke-opacity:0.9878"
       id="path27611-3"
       sodipodi:type="arc"
       sodipodi:cx="-144.53783"
       sodipodi:cy="277.858"
       sodipodi:rx="0.61452496"
       sodipodi:ry="0.61452496"
       sodipodi:start="0"
       sodipodi:end="6.2472802"
       sodipodi:arc-type="slice"
       d="m -143.9233,277.858 a 0.61452496,0.61452496 0 0 1 -0.60901,0.6145 0.61452496,0.61452496 0 0 1 -0.61994,-0.60347 0.61452496,0.61452496 0 0 1 0.59788,-0.62533 0.61452496,0.61452496 0 0 1 0.63067,0.59224 l -0.61413,0.0221 z" />
    <path
       style="fill:#000000;fill-opacity:1;stroke:none;stroke-width:4.40315;stroke-linecap:round;stroke-linejoin:round;stroke-miterlimit:4;stroke-dasharray:none;stroke-opacity:0.9878"
       id="path27611-5"
       sodipodi:type="arc"
       sodipodi:cx="-148.30658"
       sodipodi:cy="279.86859"
       sodipodi:rx="0.61452496"
       sodipodi:ry="0.61452496"
       sodipodi:start="0"
       sodipodi:end="6.2472802"
       sodipodi:arc-type="slice"
       d="m -147.69205,279.86859 a 0.61452496,0.61452496 0 0 1 -0.60901,0.6145 0.61452496,0.61452496 0 0 1 -0.61995,-0.60347 0.61452496,0.61452496 0 0 1 0.59788,-0.62533 0.61452496,0.61452496 0 0 1 0.63068,0.59224 l -0.61413,0.0221 z" />
    <path
       style="fill:#000000;fill-opacity:1;stroke:none;stroke-width:4.40315;stroke-linecap:round;stroke-linejoin:round;stroke-miterlimit:4;stroke-dasharray:none;stroke-opacity:0.9878"
       id="path27611-6"
       sodipodi:type="arc"
       sodipodi:cx="-149.8252"
       sodipodi:cy="277.11926"
       sodipodi:rx="0.61452496"
       sodipodi:ry="0.61452496"
       sodipodi:start="0"
       sodipodi:end="6.2472802"
       sodipodi:arc-type="slice"
       d="m -149.21067,277.11926 a 0.61452496,0.61452496 0 0 1 -0.60901,0.6145 0.61452496,0.61452496 0 0 1 -0.61994,-0.60347 0.61452496,0.61452496 0 0 1 0.59788,-0.62533 0.61452496,0.61452496 0 0 1 0.63067,0.59224 l -0.61413,0.0221 z" />
    <path
       style="fill:none;stroke:#000000;stroke-width:0.5;stroke-linecap:butt;stroke-linejoin:miter;stroke-miterlimit:4;stroke-dasharray:none;stroke-opacity:1"
       d="m -144.50121,275.40526 c -0.13769,0.0918 -5.71148,3.41286 -5.97268,4.47252"
       id="path28093" />
    <path
       style="fill:none;stroke:#000000;stroke-width:0.5;stroke-linecap:butt;stroke-linejoin:miter;stroke-miterlimit:4;stroke-dasharray:none;stroke-opacity:1"
       d="m -149.62149,274.54442 c 0,0 2.71031,2.47459 3.45173,5.423"
       id="path28095" />
    <path
       style="fill:#7f8080;fill-opacity:1;stroke:#000000;stroke-width:0.7;stroke-linecap:butt;stroke-linejoin:miter;stroke-miterlimit:4;stroke-dasharray:none;stroke-opacity:1"
       d="m -112.54276,264.86945 c 0,0 10.54303,15.70403 11.47583,21.43972 1.906395,-1.1394 1.184635,-4.78195 1.184635,-4.78195 0,0 2.406333,2.50533 2.118919,3.9808 -0.504745,2.59115 -0.651013,10.12986 -13.352654,15.34649 -12.70163,5.21663 -2.88175,-19.05743 -1.85836,-21.05063 2.08872,-4.06806 0.43163,-14.93443 0.43163,-14.93443 z"
       id="path28210"
       sodipodi:nodetypes="cccsssc" />
    <path
       style="fill:#9fcadf;fill-opacity:1;stroke:#000000;stroke-width:0.7;stroke-linecap:butt;stroke-linejoin:miter;stroke-miterlimit:4;stroke-dasharray:none;stroke-opacity:1"
       d="m -110.34373,282.54515 5.56786,10.06271 c 0,0 -3.42569,5.50199 -6.53552,5.13504 -1.36486,-0.16105 -3.19711,-2.45068 -3.19711,-2.45068 z"
       id="path29822"
       sodipodi:nodetypes="ccscc" />
    <g
       id="g36768"
       transform="translate(1.3211242,-0.48142034)">
      <path
         style="fill:none;stroke:#000000;stroke-width:0.401895px;stroke-linecap:butt;stroke-linejoin:miter;stroke-opacity:1"
         d="m -178.71168,323.30186 c 0.45913,-0.77212 0.46984,-1.7193 0.63326,-2.61701 0.17134,-0.94116 0.33216,-1.88804 0.45303,-2.84021 0.0947,-0.74637 0.14529,-1.51756 0.27509,-2.25666 0.0682,-0.38883 0.17225,-0.60391 0.20045,-0.98605 0.0138,-0.18621 -0.089,-0.6074 0.059,-0.55617 0.32688,0.11294 0.84885,2.60647 0.95184,2.94661 0.0776,0.25616 0.78682,2.10242 0.80712,2.15986 0.28351,0.8018 0.55058,1.63295 0.79562,2.45097 0.15364,0.51294 0.36665,1.00159 0.52359,1.50962 0.11209,0.36263 0.0989,0.62102 0.16209,0.47086 0.4509,-1.07313 0.86162,-2.24052 1.17859,-3.38487 0.16823,-0.60736 0.24467,-1.16101 0.36458,-1.78028 0.12243,-0.63221 0.31641,-1.2718 0.36049,-1.92275 0.0297,-0.43912 0.0728,-1.06783 0,-1.50962 -0.0792,-0.48103 -0.0656,-0.0328 -0.0656,-0.3973"
         id="path36635" />
      <path
         style="fill:none;stroke:#000000;stroke-width:0.401895px;stroke-linecap:butt;stroke-linejoin:miter;stroke-opacity:1"
         d="m -170.07878,319.80368 c -0.49953,0.64639 -0.82353,1.62659 -0.33773,2.36379 0.19908,0.30208 0.3115,0.5691 0.6545,0.71504 0.17874,0.0761 0.37588,0.0573 0.56347,0.0891 0.34715,0.0589 0.85324,0.28848 1.10753,-0.14377 0.36448,-0.61943 0.78173,-1.83882 0.59441,-2.63473 -0.24717,-1.05013 -1.98622,-0.7294 -2.58218,-0.3895 z"
         id="path36637" />
      <path
         style="fill:none;stroke:#000000;stroke-width:0.401895px;stroke-linecap:butt;stroke-linejoin:miter;stroke-opacity:1"
         d="m -166.27709,319.71304 c 0.25863,1.09734 0.47299,2.24617 0.55479,3.38926 0.008,0.10762 -0.0219,0.3348 0.0654,0.31409 0.10239,-0.0245 0.10105,-0.22296 0.16414,-0.32402 1.70449,-2.73202 -0.67809,1.16929 1.23816,-1.99943 0.0512,-0.0845 0.2894,-0.4143 0.32878,-0.55773 0.0138,-0.0502 -0.0125,-0.10798 0,-0.15883 0.022,-0.0936 0.45815,-1.18222 0.45815,-0.96307"
         id="path36639" />
      <path
         style="fill:none;stroke:#000000;stroke-width:0.401895px;stroke-linecap:butt;stroke-linejoin:miter;stroke-opacity:1"
         d="m -161.08718,320.09231 c -0.54681,-0.19222 -0.80418,0.30772 -1.15304,0.72909 -0.56232,0.67918 -0.15875,-0.0854 -0.66932,0.88886 -0.25304,0.48284 -0.34684,1.60475 0.38912,1.34952 0.2792,-0.0968 1.44786,-1.04345 1.57743,-1.4367 0.0778,-0.23599 0.0656,-0.74204 0.0656,-1.02919 0,-0.19595 0.041,0.38875 0.0589,0.58349 0.0498,0.54568 0.14105,1.18839 0.32826,1.6884 0.52338,1.39779 0.99156,1.4302 2.16776,1.4302"
         id="path36641" />
    </g>
  </g>
</svg>
