<?xml version="1.0"?>
<!-- Created by MetaPost 2.01 on 2021.09.29:1552 -->
<svg version="1.1" xmlns="http://www.w3.org/2000/svg" xmlns:xlink="http://www.w3.org/1999/xlink" width="154.166931" height="5.783905" viewBox="0 0 154.166931 5.783905">
<!-- Original BoundingBox: -5.224655 -2.891953 148.942276 2.891953 -->
  <defs>
    <g transform="scale(0.009963,0.009963)" id="GLYPHcmmi10_110">
      <path style="fill-rule: evenodd;" d="M88.000000 -59.000000C85.000000 -44.000000,79.000000 -21.000000,79.000000 -16.000000C79.000000 2.000000,93.000000 11.000000,108.000000 11.000000C120.000000 11.000000,138.000000 3.000000,145.000000 -17.000000C146.000000 -19.000000,158.000000 -66.000000,164.000000 -91.000000L186.000000 -181.000000C192.000000 -203.000000,198.000000 -225.000000,203.000000 -248.000000C207.000000 -265.000000,215.000000 -294.000000,216.000000 -298.000000C231.000000 -329.000000,284.000000 -420.000000,379.000000 -420.000000C424.000000 -420.000000,433.000000 -383.000000,433.000000 -350.000000C433.000000 -288.000000,384.000000 -160.000000,368.000000 -117.000000C359.000000 -94.000000,358.000000 -82.000000,358.000000 -71.000000C358.000000 -24.000000,393.000000 11.000000,440.000000 11.000000C534.000000 11.000000,571.000000 -135.000000,571.000000 -143.000000C571.000000 -153.000000,562.000000 -153.000000,559.000000 -153.000000C549.000000 -153.000000,549.000000 -150.000000,544.000000 -135.000000C524.000000 -67.000000,491.000000 -11.000000,442.000000 -11.000000C425.000000 -11.000000,418.000000 -21.000000,418.000000 -44.000000C418.000000 -69.000000,427.000000 -93.000000,436.000000 -115.000000C455.000000 -168.000000,497.000000 -278.000000,497.000000 -335.000000C497.000000 -402.000000,454.000000 -442.000000,382.000000 -442.000000C292.000000 -442.000000,243.000000 -378.000000,226.000000 -355.000000C221.000000 -411.000000,180.000000 -442.000000,134.000000 -442.000000C88.000000 -442.000000,69.000000 -403.000000,59.000000 -385.000000C43.000000 -351.000000,29.000000 -292.000000,29.000000 -288.000000C29.000000 -278.000000,39.000000 -278.000000,41.000000 -278.000000C51.000000 -278.000000,52.000000 -279.000000,58.000000 -301.000000C75.000000 -372.000000,95.000000 -420.000000,131.000000 -420.000000C151.000000 -420.000000,162.000000 -407.000000,162.000000 -374.000000C162.000000 -353.000000,159.000000 -342.000000,146.000000 -290.000000"></path>
    </g>
    <g transform="scale(0.006974,0.006974)" id="GLYPHcmr7_48">
      <path style="fill-rule: evenodd;" d="M516.000000 -319.000000C516.000000 -429.000000,503.000000 -508.000000,457.000000 -578.000000C426.000000 -624.000000,364.000000 -664.000000,284.000000 -664.000000C52.000000 -664.000000,52.000000 -391.000000,52.000000 -319.000000C52.000000 -247.000000,52.000000 20.000000,284.000000 20.000000C516.000000 20.000000,516.000000 -247.000000,516.000000 -319.000000M284.000000 -8.000000C238.000000 -8.000000,177.000000 -35.000000,157.000000 -117.000000C143.000000 -176.000000,143.000000 -258.000000,143.000000 -332.000000C143.000000 -405.000000,143.000000 -481.000000,158.000000 -536.000000C179.000000 -615.000000,243.000000 -636.000000,284.000000 -636.000000C338.000000 -636.000000,390.000000 -603.000000,408.000000 -545.000000C424.000000 -491.000000,425.000000 -419.000000,425.000000 -332.000000C425.000000 -258.000000,425.000000 -184.000000,412.000000 -121.000000C392.000000 -30.000000,324.000000 -8.000000,284.000000 -8.000000"></path>
    </g>
    <g transform="scale(0.006974,0.006974)" id="GLYPHcmr7_49">
      <path style="fill-rule: evenodd;" d="M335.000000 -636.000000C335.000000 -663.000000,333.000000 -664.000000,305.000000 -664.000000C241.000000 -601.000000,150.000000 -600.000000,109.000000 -600.000000L109.000000 -564.000000C133.000000 -564.000000,199.000000 -564.000000,254.000000 -592.000000L254.000000 -82.000000C254.000000 -49.000000,254.000000 -36.000000,154.000000 -36.000000L116.000000 -36.000000L116.000000 -0.000000C134.000000 -1.000000,257.000000 -4.000000,294.000000 -4.000000C325.000000 -4.000000,451.000000 -1.000000,473.000000 -0.000000L473.000000 -36.000000L435.000000 -36.000000C335.000000 -36.000000,335.000000 -49.000000,335.000000 -82.000000"></path>
    </g>
    <g transform="scale(0.006974,0.006974)" id="GLYPHcmr7_50">
      <path style="fill-rule: evenodd;" d="M505.000000 -182.000000L471.000000 -182.000000C468.000000 -160.000000,458.000000 -101.000000,445.000000 -91.000000C437.000000 -85.000000,360.000000 -85.000000,346.000000 -85.000000L162.000000 -85.000000C267.000000 -178.000000,302.000000 -206.000000,362.000000 -253.000000C436.000000 -312.000000,505.000000 -374.000000,505.000000 -469.000000C505.000000 -590.000000,399.000000 -664.000000,271.000000 -664.000000C147.000000 -664.000000,63.000000 -577.000000,63.000000 -485.000000C63.000000 -434.000000,106.000000 -429.000000,116.000000 -429.000000C140.000000 -429.000000,169.000000 -446.000000,169.000000 -482.000000C169.000000 -500.000000,162.000000 -535.000000,110.000000 -535.000000C141.000000 -606.000000,209.000000 -628.000000,256.000000 -628.000000C356.000000 -628.000000,408.000000 -550.000000,408.000000 -469.000000C408.000000 -382.000000,346.000000 -313.000000,314.000000 -277.000000L73.000000 -39.000000C63.000000 -30.000000,63.000000 -28.000000,63.000000 -0.000000L475.000000 -0.000000"></path>
    </g>
    <g transform="scale(0.006974,0.006974)" id="GLYPHcmr7_51">
      <path style="fill-rule: evenodd;" d="M273.000000 -334.000000C351.000000 -334.000000,407.000000 -280.000000,407.000000 -173.000000C407.000000 -49.000000,335.000000 -12.000000,277.000000 -12.000000C237.000000 -12.000000,149.000000 -23.000000,107.000000 -82.000000C154.000000 -84.000000,165.000000 -117.000000,165.000000 -138.000000C165.000000 -170.000000,141.000000 -193.000000,110.000000 -193.000000C82.000000 -193.000000,54.000000 -176.000000,54.000000 -135.000000C54.000000 -41.000000,158.000000 20.000000,279.000000 20.000000C418.000000 20.000000,514.000000 -73.000000,514.000000 -173.000000C514.000000 -251.000000,450.000000 -329.000000,340.000000 -352.000000C445.000000 -390.000000,483.000000 -465.000000,483.000000 -526.000000C483.000000 -605.000000,392.000000 -664.000000,281.000000 -664.000000C170.000000 -664.000000,85.000000 -610.000000,85.000000 -530.000000C85.000000 -496.000000,107.000000 -477.000000,137.000000 -477.000000C168.000000 -477.000000,188.000000 -500.000000,188.000000 -528.000000C188.000000 -557.000000,168.000000 -578.000000,137.000000 -580.000000C172.000000 -624.000000,241.000000 -635.000000,278.000000 -635.000000C323.000000 -635.000000,386.000000 -613.000000,386.000000 -526.000000C386.000000 -484.000000,372.000000 -438.000000,346.000000 -407.000000C313.000000 -369.000000,285.000000 -367.000000,235.000000 -364.000000C210.000000 -362.000000,208.000000 -362.000000,203.000000 -361.000000C201.000000 -361.000000,193.000000 -359.000000,193.000000 -348.000000C193.000000 -334.000000,202.000000 -334.000000,219.000000 -334.000000"></path>
    </g>
    <g transform="scale(0.006974,0.006974)" id="GLYPHcmr7_52">
      <path style="fill-rule: evenodd;" d="M529.000000 -164.000000L529.000000 -200.000000L418.000000 -200.000000L418.000000 -646.000000C418.000000 -667.000000,418.000000 -674.000000,396.000000 -674.000000C384.000000 -674.000000,380.000000 -674.000000,370.000000 -660.000000L39.000000 -200.000000L39.000000 -164.000000L333.000000 -164.000000L333.000000 -82.000000C333.000000 -48.000000,333.000000 -36.000000,252.000000 -36.000000L225.000000 -36.000000L225.000000 -0.000000C275.000000 -2.000000,339.000000 -4.000000,375.000000 -4.000000C412.000000 -4.000000,476.000000 -2.000000,526.000000 -0.000000L526.000000 -36.000000L499.000000 -36.000000C418.000000 -36.000000,418.000000 -48.000000,418.000000 -82.000000L418.000000 -164.000000M340.000000 -566.000000L340.000000 -200.000000L76.000000 -200.000000"></path>
    </g>
    <g transform="scale(0.006974,0.006974)" id="GLYPHcmr7_53">
      <path style="fill-rule: evenodd;" d="M155.000000 -558.000000C206.000000 -545.000000,236.000000 -545.000000,252.000000 -545.000000C384.000000 -545.000000,462.000000 -635.000000,462.000000 -650.000000C462.000000 -661.000000,455.000000 -664.000000,450.000000 -664.000000C448.000000 -664.000000,446.000000 -664.000000,442.000000 -661.000000C418.000000 -652.000000,365.000000 -632.000000,291.000000 -632.000000C263.000000 -632.000000,210.000000 -634.000000,145.000000 -659.000000C135.000000 -664.000000,133.000000 -664.000000,132.000000 -664.000000C119.000000 -664.000000,119.000000 -653.000000,119.000000 -637.000000L119.000000 -342.000000C119.000000 -325.000000,119.000000 -313.000000,135.000000 -313.000000C144.000000 -313.000000,145.000000 -315.000000,155.000000 -327.000000C198.000000 -382.000000,259.000000 -390.000000,294.000000 -390.000000C354.000000 -390.000000,381.000000 -342.000000,386.000000 -334.000000C404.000000 -301.000000,410.000000 -263.000000,410.000000 -205.000000C410.000000 -175.000000,410.000000 -116.000000,380.000000 -72.000000C355.000000 -36.000000,312.000000 -12.000000,263.000000 -12.000000C198.000000 -12.000000,131.000000 -48.000000,106.000000 -114.000000C144.000000 -111.000000,163.000000 -136.000000,163.000000 -163.000000C163.000000 -206.000000,126.000000 -214.000000,113.000000 -214.000000C111.000000 -214.000000,63.000000 -214.000000,63.000000 -160.000000C63.000000 -70.000000,145.000000 20.000000,265.000000 20.000000C393.000000 20.000000,505.000000 -75.000000,505.000000 -201.000000C505.000000 -314.000000,419.000000 -418.000000,295.000000 -418.000000C251.000000 -418.000000,199.000000 -407.000000,155.000000 -369.000000"></path>
    </g>
    <g transform="scale(0.006974,0.006974)" id="GLYPHcmr7_54">
      <path style="fill-rule: evenodd;" d="M150.000000 -327.000000C150.000000 -409.000000,157.000000 -483.000000,195.000000 -544.000000C229.000000 -598.000000,283.000000 -635.000000,347.000000 -635.000000C377.000000 -635.000000,417.000000 -627.000000,437.000000 -600.000000C412.000000 -598.000000,391.000000 -581.000000,391.000000 -552.000000C391.000000 -527.000000,408.000000 -505.000000,438.000000 -505.000000C468.000000 -505.000000,486.000000 -525.000000,486.000000 -554.000000C486.000000 -612.000000,444.000000 -664.000000,345.000000 -664.000000C201.000000 -664.000000,54.000000 -532.000000,54.000000 -317.000000C54.000000 -58.000000,176.000000 20.000000,286.000000 20.000000C408.000000 20.000000,514.000000 -73.000000,514.000000 -204.000000C514.000000 -331.000000,413.000000 -425.000000,296.000000 -425.000000C216.000000 -425.000000,172.000000 -372.000000,150.000000 -327.000000M286.000000 -12.000000C236.000000 -12.000000,197.000000 -41.000000,176.000000 -85.000000C161.000000 -115.000000,153.000000 -165.000000,153.000000 -225.000000C153.000000 -322.000000,211.000000 -397.000000,291.000000 -397.000000C337.000000 -397.000000,368.000000 -379.000000,393.000000 -342.000000C417.000000 -304.000000,418.000000 -262.000000,418.000000 -204.000000C418.000000 -147.000000,418.000000 -105.000000,391.000000 -66.000000C367.000000 -31.000000,335.000000 -12.000000,286.000000 -12.000000"></path>
    </g>
    <g transform="scale(0.006974,0.006974)" id="GLYPHcmr7_55">
      <path style="fill-rule: evenodd;" d="M535.000000 -604.000000C545.000000 -616.000000,545.000000 -618.000000,545.000000 -644.000000L283.000000 -644.000000C243.000000 -644.000000,232.000000 -645.000000,196.000000 -648.000000C144.000000 -652.000000,142.000000 -659.000000,139.000000 -676.000000L105.000000 -676.000000L70.000000 -462.000000L104.000000 -462.000000C106.000000 -477.000000,116.000000 -543.000000,132.000000 -553.000000C140.000000 -559.000000,221.000000 -559.000000,236.000000 -559.000000L454.000000 -559.000000C422.000000 -517.000000,371.000000 -455.000000,350.000000 -427.000000C219.000000 -255.000000,207.000000 -96.000000,207.000000 -37.000000C207.000000 -26.000000,207.000000 20.000000,254.000000 20.000000C302.000000 20.000000,302.000000 -25.000000,302.000000 -38.000000L302.000000 -78.000000C302.000000 -272.000000,342.000000 -361.000000,385.000000 -415.000000"></path>
    </g>
    <g transform="scale(0.006974,0.006974)" id="GLYPHcmr7_56">
      <path style="fill-rule: evenodd;" d="M355.000000 -361.000000C433.000000 -399.000000,483.000000 -446.000000,483.000000 -515.000000C483.000000 -612.000000,382.000000 -664.000000,285.000000 -664.000000C175.000000 -664.000000,85.000000 -592.000000,85.000000 -497.000000C85.000000 -450.000000,107.000000 -416.000000,125.000000 -396.000000C143.000000 -375.000000,150.000000 -371.000000,209.000000 -336.000000C153.000000 -312.000000,54.000000 -258.000000,54.000000 -153.000000C54.000000 -42.000000,169.000000 20.000000,283.000000 20.000000C410.000000 20.000000,514.000000 -61.000000,514.000000 -169.000000C514.000000 -235.000000,475.000000 -291.000000,417.000000 -325.000000C404.000000 -333.000000,369.000000 -353.000000,355.000000 -361.000000M192.000000 -456.000000C166.000000 -471.000000,138.000000 -498.000000,138.000000 -535.000000C138.000000 -598.000000,211.000000 -635.000000,283.000000 -635.000000C361.000000 -635.000000,430.000000 -586.000000,430.000000 -515.000000C430.000000 -426.000000,326.000000 -381.000000,324.000000 -381.000000C322.000000 -381.000000,320.000000 -382.000000,313.000000 -386.000000M241.000000 -317.000000L378.000000 -238.000000C404.000000 -223.000000,454.000000 -193.000000,454.000000 -134.000000C454.000000 -59.000000,371.000000 -12.000000,285.000000 -12.000000C193.000000 -12.000000,114.000000 -71.000000,114.000000 -153.000000C114.000000 -227.000000,169.000000 -284.000000,241.000000 -317.000000"></path>
    </g>
    <g transform="scale(0.006974,0.006974)" id="GLYPHcmr7_57">
      <path style="fill-rule: evenodd;" d="M418.000000 -298.000000C418.000000 -50.000000,295.000000 -12.000000,235.000000 -12.000000C213.000000 -12.000000,160.000000 -14.000000,133.000000 -45.000000C174.000000 -49.000000,177.000000 -83.000000,177.000000 -92.000000C177.000000 -117.000000,160.000000 -139.000000,130.000000 -139.000000C100.000000 -139.000000,82.000000 -119.000000,82.000000 -90.000000C82.000000 -22.000000,139.000000 20.000000,236.000000 20.000000C379.000000 20.000000,514.000000 -115.000000,514.000000 -329.000000C514.000000 -577.000000,404.000000 -664.000000,287.000000 -664.000000C254.000000 -664.000000,185.000000 -659.000000,128.000000 -603.000000C94.000000 -570.000000,54.000000 -531.000000,54.000000 -441.000000C54.000000 -314.000000,155.000000 -220.000000,272.000000 -220.000000C352.000000 -220.000000,395.000000 -273.000000,418.000000 -318.000000M277.000000 -248.000000C238.000000 -248.000000,201.000000 -261.000000,173.000000 -307.000000C150.000000 -344.000000,150.000000 -386.000000,150.000000 -441.000000C150.000000 -499.000000,150.000000 -539.000000,179.000000 -579.000000C203.000000 -614.000000,236.000000 -635.000000,288.000000 -635.000000C339.000000 -635.000000,369.000000 -603.000000,385.000000 -577.000000C412.000000 -535.000000,415.000000 -465.000000,415.000000 -430.000000C415.000000 -300.000000,340.000000 -248.000000,277.000000 -248.000000"></path>
    </g>
  </defs>
  <g transform="translate(-0.224655 3.397552)" style="fill: rgb(0.000000%,0.000000%,0.000000%);">
    <use xlink:href="#GLYPHcmmi10_110"></use>
  </g>
  <g transform="translate(5.755249 4.891953)" style="fill: rgb(0.000000%,0.000000%,0.000000%);">
    <use xlink:href="#GLYPHcmr7_48"></use>
  </g>
  <g transform="translate(13.948547 3.397552)" style="fill: rgb(0.000000%,0.000000%,0.000000%);">
    <use xlink:href="#GLYPHcmmi10_110"></use>
  </g>
  <g transform="translate(19.928452 4.891953)" style="fill: rgb(0.000000%,0.000000%,0.000000%);">
    <use xlink:href="#GLYPHcmr7_49"></use>
  </g>
  <g transform="translate(28.121750 3.397552)" style="fill: rgb(0.000000%,0.000000%,0.000000%);">
    <use xlink:href="#GLYPHcmmi10_110"></use>
  </g>
  <g transform="translate(34.101654 4.891953)" style="fill: rgb(0.000000%,0.000000%,0.000000%);">
    <use xlink:href="#GLYPHcmr7_50"></use>
  </g>
  <g transform="translate(42.294952 3.397552)" style="fill: rgb(0.000000%,0.000000%,0.000000%);">
    <use xlink:href="#GLYPHcmmi10_110"></use>
  </g>
  <g transform="translate(48.274857 4.891953)" style="fill: rgb(0.000000%,0.000000%,0.000000%);">
    <use xlink:href="#GLYPHcmr7_51"></use>
  </g>
  <g transform="translate(56.468155 3.397552)" style="fill: rgb(0.000000%,0.000000%,0.000000%);">
    <use xlink:href="#GLYPHcmmi10_110"></use>
  </g>
  <g transform="translate(62.448059 4.891953)" style="fill: rgb(0.000000%,0.000000%,0.000000%);">
    <use xlink:href="#GLYPHcmr7_52"></use>
  </g>
  <g transform="translate(70.641357 3.397552)" style="fill: rgb(0.000000%,0.000000%,0.000000%);">
    <use xlink:href="#GLYPHcmmi10_110"></use>
  </g>
  <g transform="translate(76.621262 4.891953)" style="fill: rgb(0.000000%,0.000000%,0.000000%);">
    <use xlink:href="#GLYPHcmr7_53"></use>
  </g>
  <g transform="translate(84.814560 3.397552)" style="fill: rgb(0.000000%,0.000000%,0.000000%);">
    <use xlink:href="#GLYPHcmmi10_110"></use>
  </g>
  <g transform="translate(90.794464 4.891953)" style="fill: rgb(0.000000%,0.000000%,0.000000%);">
    <use xlink:href="#GLYPHcmr7_54"></use>
  </g>
  <g transform="translate(98.987762 3.397552)" style="fill: rgb(0.000000%,0.000000%,0.000000%);">
    <use xlink:href="#GLYPHcmmi10_110"></use>
  </g>
  <g transform="translate(104.967667 4.891953)" style="fill: rgb(0.000000%,0.000000%,0.000000%);">
    <use xlink:href="#GLYPHcmr7_55"></use>
  </g>
  <g transform="translate(113.160965 3.397552)" style="fill: rgb(0.000000%,0.000000%,0.000000%);">
    <use xlink:href="#GLYPHcmmi10_110"></use>
  </g>
  <g transform="translate(119.140869 4.891953)" style="fill: rgb(0.000000%,0.000000%,0.000000%);">
    <use xlink:href="#GLYPHcmr7_56"></use>
  </g>
  <g transform="translate(127.334167 3.397552)" style="fill: rgb(0.000000%,0.000000%,0.000000%);">
    <use xlink:href="#GLYPHcmmi10_110"></use>
  </g>
  <g transform="translate(133.314072 4.891953)" style="fill: rgb(0.000000%,0.000000%,0.000000%);">
    <use xlink:href="#GLYPHcmr7_57"></use>
  </g>
  <g transform="translate(139.521774 3.397552)" style="fill: rgb(0.000000%,0.000000%,0.000000%);">
    <use xlink:href="#GLYPHcmmi10_110"></use>
  </g>
  <g transform="translate(145.501678 4.891953)" style="fill: rgb(0.000000%,0.000000%,0.000000%);">
    <use xlink:href="#GLYPHcmr7_49"></use>
    <use xlink:href="#GLYPHcmr7_48" x="3.986190"></use>
  </g>
</svg>
